<svg xmlns="http://www.w3.org/2000/svg" viewBox="0 0 500 486.42"><defs><style>.cls-1{fill:#00005b;}.cls-2{fill:#99f;}</style></defs><g id="レイヤー_2" data-name="レイヤー 2"><g id="レイヤー_1-2" data-name="レイヤー 1"><path class="cls-1" d="M411.16,0H88.84C42,0,0,37,0,85.14V401.28c0,48.1,42,85.14,88.84,85.14H411.16c46.86,0,88.84-37,88.84-85.14V85.14C500,37,458,0,411.16,0Z"/><polyline class="cls-2" points="132.1 124.69 190.12 124.69 267.9 343.21 218.65 343.21 200 291.45 123.46 291.36 106.17 343.21 61.73 343.21 61.73 338.21 130.86 139.51 130.86 138.27"/><polyline class="cls-1" points="160.49 166.67 161.73 166.67 187.65 250.62 135.8 250.62"/><path class="cls-2" d="M355.26,175.31c-51.56,0-77.48,46.91-77.48,77.78a84.13,84.13,0,0,0,.07,9.16c3.06,119.56,135.73,82.12,135.73,75.82V301.23c0,3.58-84,26.72-89.8-28.39H424.69s1.24,0,2.47-2.47,1.24-21,1.24-23.46C428.4,209.88,404.94,175.31,355.26,175.31Z"/><path class="cls-1" d="M355.56,211.11c-18.52,0-30.87,14.82-30.87,30.87h60.5C385.19,225.93,374.07,211.11,355.56,211.11Z"/></g></g></svg>