<svg xmlns="http://www.w3.org/2000/svg" viewBox="0 0 500 487.6"><defs><style>.cls-1{fill:#1f0040;}.cls-1,.cls-2{fill-rule:evenodd;}.cls-2{fill:#d291ff;}</style></defs><g id="レイヤー_2" data-name="レイヤー 2"><g id="レイヤー_1-2" data-name="レイヤー 1"><path class="cls-1" d="M22.11,20.81H477.89a1.3,1.3,0,0,1,1.3,1.3V465.49a1.3,1.3,0,0,1-1.3,1.3H22.11a1.3,1.3,0,0,1-1.3-1.3V22.11A1.3,1.3,0,0,1,22.11,20.81Z"/><path class="cls-2" d="M0,1.3v485a1.3,1.3,0,0,0,1.3,1.3H498.7a1.3,1.3,0,0,0,1.3-1.3V1.3A1.3,1.3,0,0,0,498.7,0H1.3A1.3,1.3,0,0,0,0,1.3ZM20.81,20.81H479.19v446H20.81Z"/><path class="cls-2" d="M141.34,276.11l-16.51,62.26c-.35,1.72-1,2.37-3.1,2.37H91.12c-2.06,0-2.41-.69-2.06-3.1l59.16-207c1-3.78,1.72-6.77,2.06-17.08,0-1.38.69-2.07,1.72-2.07h43.68c1.37,0,2.06.35,2.41,2.07L264.47,338c.34,1.73,0,2.76-1.72,2.76H228.36c-1.72,0-2.75-.65-3.09-2l-17.2-62.61Z"/><path class="cls-1" d="M199.85,242.32c-5.85-23.06-20-73.63-25.15-98.06h-.34c-4.48,24.43-15.77,65.69-24.38,98Z"/><path class="cls-2" d="M311.52,263.51c.35,28.19,13.77,47.1,45.42,47.1,12.38,0,23-1.64,34-6.45,1.37-.69,2.41-.34,2.41,1.37v26.14a4.49,4.49,0,0,1-2.07,4.12c-11,5.5-24.72,7.91-41.92,7.91-55,0-75.69-40.57-75.69-86,0-49.16,25.46-89.38,70.19-89.38,45.41,0,61.24,38.16,61.24,69.1,0,10-.69,18.23-1.72,22a2.89,2.89,0,0,1-2.75,2.66c-4.13.69-16.52,1.38-34.75,1.38Z"/><path class="cls-1" d="M353.82,234.89c10.66,0,14.44,0,15.47-.34,0-1.37.35-2.55.35-3.58,0-11.35-5.5-32.17-27.16-32.17-19.94,0-28.54,17.53-30.6,36.09Z"/></g></g></svg>