<svg xmlns="http://www.w3.org/2000/svg" viewBox="0 0 464.91 500"><defs><style>.cls-1{fill:#c3002f;}.cls-2{fill:#dd0031;}.cls-3{fill:#fff;}</style></defs><g id="レイヤー_2" data-name="レイヤー 2"><g id="レイヤー_1-2" data-name="レイヤー 1"><polygon class="cls-1" points="232.17 0 232.17 500 429.49 390.46 464.91 83.2 232.17 0"/><polygon class="cls-2" points="0 83.2 34.93 390.46 232.17 500 232.17 0 0 83.2"/><polygon class="cls-2" points="232.05 161.9 189.81 263.41 232.53 263.41 232.53 161.9 232.05 161.9"/><polygon class="cls-1" points="232.53 161.9 232.53 263.41 275.1 263.41 233.01 161.9 232.53 161.9"/><path class="cls-3" d="M233.19,56.19h-1l-144.88,325h54.13l29.39-72.92H294.55l28.69,72.92h54.32Zm-.66,207.22H189.81L232.05,161.9h1L275.1,263.41Z"/></g></g></svg>