<svg xmlns="http://www.w3.org/2000/svg" viewBox="0 0 500 487.62"><defs><style>.cls-1{fill:#00005b;}.cls-2{fill:#99f;}</style></defs><g id="レイヤー_2" data-name="レイヤー 2"><g id="レイヤー_1-2" data-name="レイヤー 1"><path class="cls-1" d="M412.18,0H89.06C42.08,0,0,37.13,0,85.35V402.28c0,48.22,42.08,85.34,89.06,85.34H412.18c47,0,87.82-37.12,87.82-85.34V85.35C500,37.13,459.16,0,412.18,0Z"/><polyline class="cls-2" points="133.66 125 191.83 125 269.8 344.06 220.43 344.06 201.73 292.17 125 292.08 107.67 344.06 63.12 344.06 63.12 339.05 132.43 139.85 132.43 138.61"/><polyline class="cls-1" points="162.13 167.08 163.37 167.08 189.36 251.24 137.38 251.24"/><path class="cls-2" d="M289.6,178.22l1.24,11.14v154.7h45.79V227.72c0-7.42,50.75-30.94,54.46,17.33v99H436.9V236.17c0-56.71-58.19-77.75-104-43.1,0,0-1.24-14.85-4.95-14.85Z"/></g></g></svg>