<svg xmlns="http://www.w3.org/2000/svg" viewBox="0 0 500 487.62"><defs><style>.cls-1{fill:#00005b;}.cls-2{fill:#99f;}</style></defs><g id="レイヤー_2" data-name="レイヤー 2"><g id="レイヤー_1-2" data-name="レイヤー 1"><path class="cls-1" d="M412.18,0H89.06C42.08,0,0,37.13,0,85.35V402.28c0,48.22,42.08,85.34,89.06,85.34H412.18c47,0,87.82-37.12,87.82-85.34V85.35C500,37.13,459.16,0,412.18,0Z"/><polyline class="cls-2" points="128.71 126.24 185.64 126.24 263.61 344.06 215.48 344.06 196.78 292.17 118.81 292.08 101.48 344.06 58.17 344.06 58.17 340.28 127.47 141.09 127.47 139.85"/><polyline class="cls-1" points="157.18 168.32 158.42 168.32 184.41 252.47 132.43 252.47"/><path class="cls-2" d="M423.29,344.31l-1.24-16.09V178.47H377.49s0,111.38,0,118.81c0,5.94-54.47,29.45-55.69-17.33V178.47H277.23V286.35c0,73.8,73,72.56,102.74,45.58,0,0,1.24,12.38,4.95,12.38Z"/></g></g></svg>