<svg xmlns="http://www.w3.org/2000/svg" viewBox="0 0 500 387.28"><defs><style>.cls-1{fill:#0089d6;}</style></defs><g id="レイヤー_2" data-name="レイヤー 2"><g id="レイヤー_1-2" data-name="レイヤー 1"><path class="cls-1" d="M231.31,366.6c64.24-11.35,117.3-20.74,117.91-20.87l1.11-.24-60.65-72.13C256.32,233.68,229,201.06,229,200.88c0-.36,62.62-172.81,63-173.43.11-.2,42.73,73.38,103.3,178.36C452,304.1,498.78,385.14,499.21,385.9l.79,1.38-192.74,0-192.74,0Z"/><path class="cls-1" d="M0,344.6c0-.1,28.58-49.71,63.5-110.24l63.51-110L201,62.2C241.72,28,275.13.05,275.26,0a12.58,12.58,0,0,1-1.19,3c-.78,1.69-36.95,79.26-80.36,172.36L114.79,344.64l-57.4.07C25.83,344.75,0,344.7,0,344.6Z"/></g></g></svg>