<svg xmlns="http://www.w3.org/2000/svg" viewBox="0 0 500 500"><defs><style>.cls-1{fill:#563d7c;}.cls-2{fill:#fff;}</style></defs><g id="レイヤー_2" data-name="レイヤー 2"><g id="レイヤー_1-2" data-name="レイヤー 1"><path class="cls-1" d="M500,416.67A83.58,83.58,0,0,1,416.67,500H83.33A83.58,83.58,0,0,1,0,416.67V83.33A83.58,83.58,0,0,1,83.33,0H416.67A83.58,83.58,0,0,1,500,83.33Z"/><path class="cls-2" d="M135.87,108.66H277.61q39.22,0,62.91,18c15.77,12,23.7,30.07,23.7,54.33q0,22.06-10.79,37.75c-7.19,10.46-17.48,18.63-30.88,24.35v.81q27,5.76,40.85,25.49c9.23,13.24,13.89,29.74,13.89,49.68a83,83,0,0,1-6.13,32A64.68,64.68,0,0,1,352,376.8c-8.74,7.19-19.85,12.91-33.5,17.15s-29.82,6.38-48.61,6.38h-134V108.66ZM186.93,230.8h83.33c12.26,0,22.47-3.43,30.64-10.46s12.25-17,12.25-30.06q0-22.07-11-31.05c-7.35-6-18-9-31.86-9H186.93V230.8Zm0,127.86h90.28c15.52,0,27.61-4,36.11-12.09s12.91-19.45,12.91-34.15c0-14.46-4.25-25.49-12.91-33.34s-20.59-11.6-36.11-11.6H186.93Z"/></g></g></svg>