<svg xmlns="http://www.w3.org/2000/svg" viewBox="0 0 500 500"><defs><style>.cls-1{fill:#1e9e25;}.cls-2{fill:#05930c;}.cls-3{fill:#fff;}</style></defs><g id="レイヤー_2" data-name="レイヤー 2"><g id="レイヤー_1-2" data-name="レイヤー 1"><path class="cls-1" d="M77,69.5A249.27,249.27,0,0,0,0,250C0,388.07,111.93,500,250,500a249.26,249.26,0,0,0,180.17-76.68Z"/><path class="cls-2" d="M77,69.5A249.17,249.17,0,0,1,250,0C388.07,0,500,111.93,500,250a249.18,249.18,0,0,1-69.83,173.32Z"/><path class="cls-3" d="M186.32,169c14.68,0,29.68,0,51,12V156.28c-15.34-6.28-32.15-7.8-49.07-7.8A96.66,96.66,0,0,0,112.46,185c-15.32,19.25-21.8,41-21.8,65.21S94,296,112.46,320.45c17,22.47,44.8,31.54,75.81,31.54,16.92,0,33.73-5.51,49.07-11.79V318.51c-21.34,12-36.34,13-51,13-15.32,0-35.36-5.62-48.95-19.22-16.52-16.51-22.32-38.09-22.37-62.5,0-20,5.85-43,22.37-59.55C151,176.62,171,169,186.32,169Z"/><path class="cls-3" d="M409,221l3-14H376.39L388,152H370l-11.61,55h-34L336,152H318l-11.61,55H269l-3,14h37.43l-8.86,42H260l-3,14h34.61L280,332h18l11.61-55h34L332,332h18l11.61-55H400l3-14H364.57l8.86-42Zm-62.43,42h-34l8.86-42h34Z"/></g></g></svg>