<svg xmlns="http://www.w3.org/2000/svg" viewBox="0 0 500 500"><defs><style>.cls-1{fill:#db4436;}.cls-2{fill:#0f9d58;}.cls-3{fill:#ffcd40;}.cls-4{fill:#ff0;}.cls-5{fill:#fff;}.cls-6{fill:#4285f4;}.cls-7{fill:#b43729;}.cls-8{fill:#e8b035;}.cls-9{fill:#129254;}.cls-10{fill:#f1f1f1;}</style></defs><g id="レイヤー_2" data-name="レイヤー 2"><g id="レイヤー_1-2" data-name="レイヤー 1"><path class="cls-1" d="M141.29,216.82A113.7,113.7,0,0,1,250,136.36c.93,0,1.85,0,2.78,0h220a250.07,250.07,0,0,0-433-21.74c-.12.17-.23.35-.34.53L141.29,216.8Z"/><path class="cls-2" d="M275.33,360.8a113.77,113.77,0,0,1-127-60.11h0L39.37,115.29A248.78,248.78,0,0,0,0,250C0,384,105.38,493.32,237.77,499.7l37.56-138.9Z"/><path class="cls-3" d="M472.81,136.5,333.48,172.9h0A113.63,113.63,0,0,1,344.56,313h0L237.77,499.7c4,.19,8.13.3,12.23.3,138.07,0,250-111.93,250-250A249,249,0,0,0,472.81,136.5Z"/><path class="cls-4" d="M250,136.36a113.7,113.7,0,0,0-108.71,80.46l7,83.87a113.77,113.77,0,0,0,127,60.11L344.56,313a113.63,113.63,0,0,0-11.1-140.15L252.78,136.4C251.85,136.38,250.93,136.36,250,136.36Zm0,204.55A90.91,90.91,0,1,1,340.91,250,90.91,90.91,0,0,1,250,340.91Z"/><circle class="cls-4" cx="250" cy="250" r="90.91"/><circle class="cls-5" cx="250" cy="250" r="90.91"/><circle class="cls-6" cx="250" cy="250" r="90.91"/><path class="cls-7" d="M148.28,300.69a113.89,113.89,0,0,1-7-83.87v0L39.43,115.19l-.06.1L148.28,300.7Z"/><path class="cls-4" d="M473.21,136.4h-.46l.06.1Z"/><path class="cls-8" d="M252.78,136.4a113.27,113.27,0,0,1,80.68,36.49h0l139.33-36.4-.06-.1h-220Z"/><polygon class="cls-4" points="237.77 499.71 237.77 499.7 237.77 499.7 237.77 499.71"/><path class="cls-9" d="M344.56,313a113.78,113.78,0,0,1-69.23,47.76h0L237.77,499.7h0L344.57,313Z"/><path class="cls-10" d="M333.46,172.89a113.27,113.27,0,0,0-80.68-36.49c-.93,0-1.85,0-2.78,0a113.67,113.67,0,1,0,83.46,36.53ZM250,340.91A90.91,90.91,0,1,1,340.91,250,90.91,90.91,0,0,1,250,340.91Z"/></g></g></svg>