<svg xmlns="http://www.w3.org/2000/svg" viewBox="0 0 441.25 500"><defs><style>.cls-1{fill:#3b9adb;}.cls-2{fill:none;}.cls-3{fill:#71b2de;}.cls-4{fill:#ebebeb;}.cls-5{fill:#fff;}</style></defs><g id="レイヤー_2" data-name="レイヤー 2"><g id="レイヤー_1-2" data-name="レイヤー 1"><path class="cls-1" d="M220.63,0H1A1,1,0,0,0,0,1.07L40.38,450a1,1,0,0,0,.72.86L220.37,500a1.14,1.14,0,0,0,.52,0L400.16,450.9a1,1,0,0,0,.72-.86l40.37-449a1,1,0,0,0-1-1.07Z"/><polygon class="cls-2" points="178.98 174.9 178.98 174.9 178.98 174.89 178.98 174.9"/><polygon class="cls-3" points="297.56 147.65 220.63 147.86 220.63 203.32 292.67 203.32 297.56 147.65"/><polygon class="cls-3" points="281.51 329.65 287.8 258.53 220.63 258.69 220.63 346.3 220.66 346.31 281.51 329.65"/><path class="cls-3" d="M220.63,37.33V92H357.86a1,1,0,0,1,1,1.07L333.62,373.42a1,1,0,0,1-.72.85L220.65,405h0V462.6a1,1,0,0,0,1.24.95l146.32-41.64a1,1,0,0,0,.71-.85L403.4,37.41a1,1,0,0,0-1-1.06H221.61A1,1,0,0,0,220.63,37.33Z"/><polygon class="cls-4" points="82.7 91.98 87.44 148.22 220.63 147.86 220.63 91.98 82.7 91.98"/><path class="cls-4" d="M159.74,329l-3.63-40.37a2,2,0,0,0-2-1.78H101a1,1,0,0,0-1,1.07l7.69,85.52a1,1,0,0,0,.72.85l111,30.38a1,1,0,0,0,1.24-.94V347.05a1,1,0,0,0-.73-.95l-59.44-16.27A1,1,0,0,1,159.74,329Z"/><path class="cls-4" d="M220.63,203.32H93.53a1,1,0,0,0-1,1.06l4.71,53.72a1,1,0,0,0,1,.88l122.39-.29v-.16"/><path class="cls-5" d="M333.62,373.42,358.83,93.05a1,1,0,0,0-1-1.07H220.63v55.88l75.86-.21a1,1,0,0,1,1,1.07l-4.71,53.71a1,1,0,0,1-1,.89H220.63v55.21h66.1a1,1,0,0,1,1,1.07L281.57,329a1,1,0,0,1-.72.85l-60.2,16.48h0V405h0l112.26-30.73A1,1,0,0,0,333.62,373.42Z"/><polygon class="cls-5" points="220.63 258.53 220.63 258.69 287.8 258.53 220.63 258.53"/></g></g></svg>