<svg xmlns="http://www.w3.org/2000/svg" viewBox="0 0 394.93 500"><defs><style>.cls-1{fill:#76ec73;}.cls-2{fill:none;stroke:#94fa91;stroke-miterlimit:10;opacity:0.85;}.cls-3{fill:#27392a;}</style></defs><g id="レイヤー_2" data-name="レイヤー 2"><g id="レイヤー_1-2" data-name="レイヤー 1"><rect class="cls-1" width="394.93" height="500"/><line class="cls-2" y1="55.06" x2="394.93" y2="55.06"/><line class="cls-2" y1="111.4" x2="394.93" y2="111.4"/><line class="cls-2" y1="168.03" x2="394.93" y2="168.03"/><line class="cls-2" y1="223.17" x2="394.93" y2="223.17"/><line class="cls-2" y1="279.06" x2="394.93" y2="279.06"/><line class="cls-2" y1="334.2" x2="394.93" y2="334.2"/><line class="cls-2" y1="389.34" x2="394.93" y2="389.34"/><line class="cls-2" y1="444.49" x2="394.93" y2="444.49"/><path class="cls-3" d="M171,210.18a34.24,34.24,0,0,1-12.35,9.17,31.33,31.33,0,0,0-3.51-5.94,26.88,26.88,0,0,0,12.23-9.69,67,67,0,0,1-3.73-10.87,42.33,42.33,0,0,1-2.33,3.57,57.39,57.39,0,0,0-4.19-4H157a58.82,58.82,0,0,1-8,7.82v1.19l11.27-1,.06,5.32c-3.8.51-7.65,1-11.33,1.42V213c0,4.82-1.42,6.52-10.93,6.35a22.6,22.6,0,0,0-1.93-5.78c1.13.06,2.32.06,3.34.06,2.78,0,3.12,0,3.12-.79V208c-3.17.34-6,.68-8.38.91a1.14,1.14,0,0,1-1,.9l-2-6.91c3.11-.22,7.08-.51,11.44-.9v-4.59l2.26.11c1-.85,2-1.87,2.95-2.88h-4.31a57.29,57.29,0,0,1-8.6,6.17,38.51,38.51,0,0,0-4.25-4.93,45.16,45.16,0,0,0,5.72-3.57v-2.94h3.62a35.46,35.46,0,0,0,2.67-2.55H131.28V181H140v-4h-6.17v-5.72H140v-5.44l7.76.46c-.06.51-.51.85-1.47,1v4H152v2.66a66.5,66.5,0,0,0,3.06-6.68l7.25,2.44c-.17.45-.8.68-1.59.62A69.63,69.63,0,0,1,155.06,181h4.82v4.41a80.6,80.6,0,0,0,4.76-19.54l8,1.59a1.4,1.4,0,0,1-1.47.85c-.46,2.66-1,5.38-1.59,8h15.12v6.28h-3.4c-1.19,8.38-3.05,15.46-6.17,21.35C174,206,171,210.18,171,210.18ZM146.29,177v4h1.24c1-1.31,1.81-2.61,2.66-4Zm7.42,12.07,3.17,2a25.9,25.9,0,0,0,2.38-4.25h-8.33l-2.15,2.55h4Zm14.15-6.52-.05.11a74.2,74.2,0,0,0,3.45,13.26,61.48,61.48,0,0,0,3.06-13.37Z"/><path class="cls-3" d="M175.8,206.62a25.55,25.55,0,0,0,8.76,7.53,26.89,26.89,0,0,0-4.7,5.95,30,30,0,0,1-8.64-7.8Z"/><path class="cls-3" d="M206.84,190.19c1.69,1.53,6.79,6.79,7.87,8.15l-3.85,5.38a64.24,64.24,0,0,0-4-6.57v22.2h-6.63V198.63A51.54,51.54,0,0,1,194,210.35a37.57,37.57,0,0,0-3.17-6.46c3.06-3.62,6.17-9.74,8.15-15.29h-7.19v-6.34h8.44v-6.68c-2.32.62-4.7,1.13-7,1.58a18.1,18.1,0,0,0-2-4.93c6.69-1.47,14-3.85,18.3-6.28l5.43,4.93a2.13,2.13,0,0,1-1.41.28,54.06,54.06,0,0,1-6.68,2.55v8.55h6.9v6.34h-6.9Zm23.78-24,8.44.46c-.06.56-.45.9-1.53,1.07v30.47L243.7,197l1.14,6.46-7.31,1.3v14.55h-6.91Zm-1.47,40.14-15,2.68-1.08-6.46,16-2.9Zm-5-9c-1.82-2.66-5.89-6.4-9.29-9l4.7-3.91c3.34,2.44,7.64,6,9.57,8.5Zm-3.29-27.92c3.17,2.49,7,6.06,8.78,8.67l-5.21,4.08c-1.59-2.55-5.33-6.4-8.44-9.07Z"/><path class="cls-3" d="M282.21,182.83h5.88v-2.15h-5.88V176h5.88v-2.09h-5.88v-4h12.62V176h7.31v4.7h-7.31v6.12H282.21ZM279.66,195h22.93v4.7H250.66V195H272.8v-2.1h-18v-4.13h18v-2H256.32v-4H272.8v-2.15h-22V176h22v-2.09H256.89v-4H272.8V166.3l8.38.45c-.05.62-.45.91-1.52,1.08Zm2.55-6.23H298v4.13H282.21ZM266.42,214.1H289v-2.21H266.42v-4H289v-2.09H264.53V220.1H258V201.52h37.89V220H289V218.4H266.42Z"/><path class="cls-3" d="M107.88,186.82l-.08,3.07c-1.59,13.25-5.17,19.75-11.83,19.75-4.23,0-7.29-3.56-7.29-10.15,0-9.92,7.91-17.2,17.79-17.2.55,0,1.09,0,1.61,0Zm-4.78.47a12.35,12.35,0,0,0-9.65,12c0,3.25,1,5.54,2.67,5.54C99.92,204.84,102.44,196.35,103.1,187.29Z"/><path class="cls-3" d="M110,182.53c8.64,1.26,13,7.22,13,14.68,0,9.1-4.69,13.83-14.45,16.31a26.34,26.34,0,0,0-3.1-4.11c8.83-1.74,12.36-6,12.36-12.13,0-5.46-3.14-9.37-7.86-10.27Z"/><path class="cls-3" d="M240.26,106.11v6.09H214.94v-6.09ZM256,150.28c-4.29,3.07-7.06,5.38-12.63,7.05-.77-1.86-3.25-4.19-4.72-5.92V154H226.72v-7.57h4.5v-6.69h-6.86v16.76h-7.28V134.38h21.55v16.9A44.05,44.05,0,0,0,251.7,145a58.41,58.41,0,0,1-8.18-12.77l6.61-2.11h-9v-6.92h2.24a38,38,0,0,0-6.13-4.68v3.18H218v-6.58H237.2v3.08a15.36,15.36,0,0,0,7-13.27V97.26h21.66v14.49c0,1.79.13,2,.83,2h1.67c.83,0,1.09-.83,1.22-6.47a19.11,19.11,0,0,0,6.21,2.76c-.64,8-2.37,10.25-6.66,10.25h-3.78c-5.19,0-6.67-2-6.67-8.39v-7.76h-7.24c0,4.42,0,13.65-8,19.1h23.33l1.34-.26,4.87,1.92a2.09,2.09,0,0,1-.7,1,41.11,41.11,0,0,1-9.68,17.76C258.32,148.16,256,150.28,256,150.28ZM237.2,124v6.51H218V124Zm-.87-26.53v5.83H218.28V97.46Zm14,32.68a32.34,32.34,0,0,0,6.34,8.78,31.37,31.37,0,0,0,6.09-8.78Z"/><path class="cls-3" d="M264.43,145.44c2.83,2,7.34,3.44,11.52,4.48a33.25,33.25,0,0,0-5,6.66,39.23,39.23,0,0,1-11.77-5.81S264.18,145.27,264.43,145.44Z"/><path class="cls-3" d="M308.27,106.79v6.09H281.05v-6.09Zm-15.84,41.05h4.86v-7.43h-7.37v16h-7.41V134.32h23v19.61H292.43Zm-8.24-26.18v-5.84H305v5.84Zm0,8.78v-5.77H305v5.77ZM305,98.14V104h-19.7V98.14Zm25.07,58.44h-8.56V123.14h-12v-7.63h12V95.66l10.36,1.26c-.07.64-.58,1-1.8,1.22Zm2.53-41.36H342v7.63h-9.43Z"/><path class="cls-3" d="M80,157.33c-4.19,0-5.72,0-9.07-1.36s-7.68-3.41-10-6-4.87-5.81-6.13-9.57a40.1,40.1,0,0,1-1.88-12.69,44.84,44.84,0,0,1,1.88-13.41,23.75,23.75,0,0,1,5.39-8.8,28.12,28.12,0,0,1,9.27-6.77A25.39,25.39,0,0,1,80,96.61V108a10.59,10.59,0,0,0-5.38,1.36A13.11,13.11,0,0,0,70,113.29a18.48,18.48,0,0,0-2.94,6.2A25.06,25.06,0,0,0,66,127a30.62,30.62,0,0,0,1,8.22A18.35,18.35,0,0,0,70,141.38a13.39,13.39,0,0,0,4.64,3.92,10.48,10.48,0,0,0,5.42,1.38Z"/><path class="cls-3" d="M82.81,146.51a24.28,24.28,0,0,0,3.57-.57,12.5,12.5,0,0,0,4-2.1,12.3,12.3,0,0,0,2.89-3.28c.77-1.28.56-2,.85-3.58h12.51a21.8,21.8,0,0,1-7.7,15.23c-2.2,1.85-4,2.55-7,3.58a45.53,45.53,0,0,1-9.08,1.43ZM82.54,96.7a36.12,36.12,0,0,1,8.52,1.53,19.42,19.42,0,0,1,7,3.76,22.7,22.7,0,0,1,5.37,6.84,18.74,18.74,0,0,1,2.36,7.94H93.3c-.3-1.65-.09-1.67-.86-3a12.41,12.41,0,0,0-2.9-3.48,12.8,12.8,0,0,0-4-2.22,14.48,14.48,0,0,0-3-.62Z"/><path class="cls-3" d="M133,106.5a10.21,10.21,0,0,0-3.37.5,9.73,9.73,0,0,0-3.17,1.44,6.53,6.53,0,0,0-2,2.28,6.19,6.19,0,0,0-.72,3c0,1.79,2,3.12,3,3.58a29.19,29.19,0,0,0,6.56,2l7,1.48a37,37,0,0,1,7.51,2.35,16.87,16.87,0,0,1,8.89,8.81,27.4,27.4,0,0,1,1,7.49,18.35,18.35,0,0,1-1.62,7.84c-1.08,2.32-3.38,4.29-5.41,5.91s-4.48,2.11-7.37,3a31.17,31.17,0,0,1-7.16,1.23V146.67a27.39,27.39,0,0,0,3.1-.4,11,11,0,0,0,3.38-1.52,7.37,7.37,0,0,0,2.22-2.34,5.86,5.86,0,0,0,.8-3,5.27,5.27,0,0,0-2.32-4.48,12.42,12.42,0,0,0-3.1-1.58,46.62,46.62,0,0,0-5.29-1.26l-7.53-1.61Q111.59,127.21,111.6,114a20.34,20.34,0,0,1,1.58-8.14c1-2.22,2.54-3.38,4.46-5a20.23,20.23,0,0,1,7-3.66A25.8,25.8,0,0,1,133,95.94Z"/><path class="cls-3" d="M135.79,96.25a37.06,37.06,0,0,1,7.43,1.17c2.67.85,5,1.47,6.92,3a16.41,16.41,0,0,1,4.61,5.33,27.91,27.91,0,0,1,2.54,9.28H144.44a15.4,15.4,0,0,0-1.09-4.61,8.32,8.32,0,0,0-2.26-2.4,10.35,10.35,0,0,0-3.24-1.54,12.56,12.56,0,0,0-2-.38Z"/><path class="cls-3" d="M133.24,157.33a32.9,32.9,0,0,1-9.37-1.67,21.77,21.77,0,0,1-7.2-3.5,19.18,19.18,0,0,1-4.71-6.27c-1.13-2.16-1.75-6.82-1.86-9.52H122c.14,1.18.36,3.73,1,4.67a11.2,11.2,0,0,0,2.54,3.17,12.67,12.67,0,0,0,3.7,1.54,13.36,13.36,0,0,0,3.94.54Z"/><path class="cls-3" d="M184.44,106.5a10.32,10.32,0,0,0-3.38.5,9.68,9.68,0,0,0-3.16,1.44,6.53,6.53,0,0,0-2,2.28,6.19,6.19,0,0,0-.72,3c0,1.79,2,3.12,3,3.58a29.19,29.19,0,0,0,6.56,2l7,1.48a36.71,36.71,0,0,1,7.5,2.35,17.24,17.24,0,0,1,5.17,3.42,17.46,17.46,0,0,1,3.72,5.39,27.4,27.4,0,0,1,1,7.49,18.35,18.35,0,0,1-1.62,7.84c-1.08,2.32-3.38,4.29-5.41,5.91s-4.48,2.11-7.36,3a31.17,31.17,0,0,1-7.16,1.23V146.67a26.79,26.79,0,0,0,3.1-.4,10.82,10.82,0,0,0,3.38-1.52,7.4,7.4,0,0,0,2.23-2.34,5.86,5.86,0,0,0,.8-3,5.51,5.51,0,0,0-.56-2.48,5.64,5.64,0,0,0-1.77-2,12.25,12.25,0,0,0-3.1-1.58,46.1,46.1,0,0,0-5.29-1.26l-7.52-1.61Q163,127.21,163,114a20.52,20.52,0,0,1,1.58-8.14c1.06-2.22,2.54-3.38,4.46-5a20.37,20.37,0,0,1,7-3.66,25.75,25.75,0,0,1,8.42-1.29Z"/><path class="cls-3" d="M187.21,96.25a37.18,37.18,0,0,1,7.43,1.17c2.66.85,5,1.47,6.92,3a16.38,16.38,0,0,1,4.6,5.33,27.92,27.92,0,0,1,2.55,9.28H195.85a15.09,15.09,0,0,0-1.08-4.61,8.46,8.46,0,0,0-2.26-2.4,10.35,10.35,0,0,0-3.24-1.54,12.49,12.49,0,0,0-2.06-.38Z"/><path class="cls-3" d="M184.65,157.33a32.89,32.89,0,0,1-9.36-1.67,21.73,21.73,0,0,1-7.21-3.5,19.15,19.15,0,0,1-4.7-6.27c-1.14-2.16-1.76-6.82-1.86-9.52h11.85c.13,1.18.35,3.73,1,4.67a11,11,0,0,0,2.54,3.17,12.56,12.56,0,0,0,3.7,1.54,13.31,13.31,0,0,0,3.94.54Z"/></g></g></svg>