<svg xmlns="http://www.w3.org/2000/svg" viewBox="0 0 500 499.9"><defs><style>.cls-1{fill:#ff0;}.cls-2{fill:#01579b;}.cls-3{fill:#40c4ff;}.cls-4{fill:#03589c;}.cls-5{fill:#2cb7f6;}</style></defs><g id="レイヤー_2" data-name="レイヤー 2"><g id="レイヤー_1-2" data-name="レイヤー 1"><path class="cls-1" d="M84.81,85.84l0,.1.21-.1Z"/><path class="cls-2" d="M84.66,86.16,5.38,252.69s-14.2,23.66,3.55,52.06l82.59,82.6c-2.8-5.05-6.86-15.62-6.86-34.5Z"/><path class="cls-1" d="M84.66,86v.17l.1-.22Z"/><polygon class="cls-3" points="203.56 499.9 410.07 499.9 410.07 411.15 115.42 411.15 203.56 499.9"/><path class="cls-3" d="M388.21,96.17,300,8.93C271.62-8.82,248,5.38,248,5.38L85,85.84h266.7C372.07,85.84,383.36,92.36,388.21,96.17Z"/><path class="cls-4" d="M391.14,98.86a20.8,20.8,0,0,0-2.93-2.69c-4.85-3.81-16.14-10.33-36.54-10.33H85l-.21.1L410.07,411.25H500V207.11Z"/><path class="cls-4" d="M410.07,411.15H115.43l-23.91-23.9c-2.8-5.05-6.86-15.62-6.86-34.5V86.06l.1-.22Z"/><path class="cls-5" d="M410.07,411.15H115.43l-23.91-23.9c-2.8-5.05-6.86-15.62-6.86-34.5V86.06l.1-.22Z"/></g></g></svg>