<svg xmlns="http://www.w3.org/2000/svg" viewBox="0 0 500 437.43"><defs><style>.cls-1{fill:#33c481;}.cls-2{fill:#185c37;}.cls-3{fill:#107c41;}.cls-4{fill:#21a366;}.cls-5,.cls-6{fill:#114228;}.cls-5,.cls-7{opacity:0.4;}.cls-6{opacity:0.2;}.cls-7{fill:#0e3520;}.cls-8{fill:#0d301d;opacity:0.6;}.cls-9{fill:#fff;}</style></defs><g id="レイヤー_2" data-name="レイヤー 2"><g id="レイヤー_1-2" data-name="レイヤー 1"><path class="cls-1" d="M309.06,0H477.14C495,0,500,15.8,500,21.87v87.5H309.06Z"/><path class="cls-2" d="M309.06,328.05V218.72H118.12V415.56c0,6.08,5,21.87,22.86,21.87H477.14c17.82,0,22.86-15.79,22.86-21.87V328.05Z"/><path class="cls-3" d="M309.06,218.72H500V328.05H309.06Z"/><path class="cls-4" d="M309.06,218.72H500V109.37H309.06Z"/><path class="cls-3" d="M309.06,109.37H118.12V218.72H309.06Z"/><path class="cls-4" d="M309.06,109.37H118.12V21.87C118.12,15.8,123.16,0,141,0H309.06Z"/><path class="cls-5" d="M238.92,87.79H118v281.5H242.2c13.55,0,21.7-13.23,21.7-25V115C263.9,100.83,256.26,87.79,238.92,87.79Z"/><path class="cls-6" d="M246.06,79.06H118V357.28h127.2c14.42,0,27.46-14.06,27.46-25.7V106C272.63,94.38,260.47,79.06,246.06,79.06Z"/><path class="cls-7" d="M238.92,87.79H118v263H242.2c13.55,0,21.7-12.36,21.7-23.32V113.17C263.9,100,256.26,87.79,238.92,87.79Z"/><path class="cls-8" d="M118,350.74H231.84c13.55,0,21.7-11.39,21.7-22.39V113.27c0-17.85-8.45-25.48-20.61-25.48H118Z"/><path class="cls-3" d="M232.91,87.79c12.63,0,20.22,10.92,20.22,21.46V318.51c0,10.55-7.59,21.47-20.22,21.47H20.22C7.59,340,0,329.06,0,318.51V109.25C0,98.71,7.59,87.79,20.22,87.79Z"/><polygon class="cls-9" points="69.6 145.89 102.46 145.89 128.47 196.55 129.66 196.55 157.23 145.89 187.35 145.89 144.9 214.35 188.72 282.81 155.81 282.81 127.11 229.32 98.33 282.81 65.42 282.81 109.3 214.35 69.6 145.89"/></g></g></svg>