<svg xmlns="http://www.w3.org/2000/svg" viewBox="0 0 498.59 500"><defs><style>.cls-1{fill:#2c2d35;}.cls-2{fill:#f24e1e;}.cls-3{fill:#a259ff;}.cls-4{fill:#1abcfe;}.cls-5{fill:#0acf83;}.cls-6{fill:#ff7262;}</style></defs><g id="レイヤー_2" data-name="レイヤー 2"><g id="レイヤー_1-2" data-name="レイヤー 1"><path class="cls-1" d="M395.87,0H102.72C49.86,0,0,46.5,0,99.84V400.16C0,453.5,49.86,500,102.72,500H395.87c52.87,0,102.72-46.5,102.72-99.84V99.84C498.59,46.5,448.74,0,395.87,0Z"/><path class="cls-2" d="M185.52,63.9c-32,0-58,27.51-58,61.45s26,61.46,58,61.46H249.3V63.9Z"/><path class="cls-3" d="M185.52,186.81c-32,0-58,27.25-58,60.87s26,60.88,58,60.88H249.3V186.81Z"/><circle class="cls-4" cx="310.17" cy="247.68" r="60.87"/><path class="cls-5" d="M185.52,308.56v.07a60.87,60.87,0,1,0,63.7,63.7h.08V308.56Z"/><path class="cls-6" d="M313.07,63.9H249.3V186.81h63.77c32,0,58-27.52,58-61.46S345.09,63.9,313.07,63.9Z"/></g></g></svg>