<svg xmlns="http://www.w3.org/2000/svg" viewBox="0 0 500 500"><defs><style>.cls-1{fill:#f05033;}.cls-2{fill:#fff;}</style></defs><g id="レイヤー_2" data-name="レイヤー 2"><g id="レイヤー_1-2" data-name="レイヤー 1"><path class="cls-1" d="M492.28,229,381.62,118.38,271,7.72C259.24-4,237.07-.31,231.47,5.29L118.38,118.38,5.29,231.47C-.31,237.07-4,259.24,7.72,271L118.38,381.62,229,492.28c11.72,11.72,33.89,8,39.49,2.43L381.62,381.62,494.71,268.53C500.31,262.93,504,240.76,492.28,229Z"/><path class="cls-2" d="M289.87,356.39A37.91,37.91,0,0,0,268,322V185.67l52.82,52.82a37.88,37.88,0,1,0,22.88-22.38l-56.06-56.06a37.9,37.9,0,0,0-48.31-48.32L182.15,54.61,159.52,77.24l56.88,56.88a37.87,37.87,0,0,0,20.88,48.32v139a37.89,37.89,0,1,0,52.59,34.92Z"/></g></g></svg>