<svg xmlns="http://www.w3.org/2000/svg" viewBox="0 0 500 498.76"><defs><style>.cls-1{fill:#fff;}</style></defs><g id="レイヤー_2" data-name="レイヤー 2"><g id="レイヤー_1-2" data-name="レイヤー 1"><path d="M324.15,485.92C353.4,486.26,500,411.65,500,249.68,500,118.46,397.24-.64,248.69,0,98.17.66,0,122.34,0,249.68,0,410.34,144,486.26,174.08,486.26c6.55,0,14.2-5.06,14.21-8.71.19-79-5-93.39,14.59-116.95,18.84-22.6,67.33-25.59,92.93,0,17,17,15.56,32.73,15.56,116.6C311.37,483.14,319.36,485.86,324.15,485.92Z"/><path class="cls-1" d="M311.37,477.2c0-83.87,1.46-99.58-15.56-116.6-25.6-25.59-74.09-22.6-92.93,0-19.63,23.57-14.4,38-14.59,117,0,3.65-7.66,8.71-14.21,8.71a35.26,35.26,0,0,1-7.64-1.08,257.19,257.19,0,0,0,82.25,13.58,254.73,254.73,0,0,0,96.75-18.21c-9.29,3.65-16.72,5.42-21.29,5.37C319.36,485.86,311.37,483.14,311.37,477.2Z"/><path class="cls-1" d="M312.83,128.93c5.23-2.62,32.72-26.18,65.44-26.18,9.16,0,13.09,48.43,5.24,66.76,0,0,31.41,30.1,24.87,83.76-10.52,86.24-61.37,96.88-112.57,106-36.65,6.54-46.3,6-92.93,0-51-6.55-99.48-19.64-111.26-103.41-8.45-60.13,24.87-86.38,24.87-86.38-11.78-38,1-66.76,3.93-66.76,31.41,0,55,18.33,66.75,26.18,1.54,1,23.56-9.16,60.37-8.07C307.58,122.63,310.21,130.24,312.83,128.93Z"/><path class="cls-1" d="M187.87,427.58c-14.86,2.73-40.07,3.85-46.51,1.09s-28.79-6.55-39.27-35.34c-5.07-14-11.27-18.4-15.56-23.6-5.38-6.51-25-15.67-18.47-22.21,2.62-2.62,26.18-3.93,43.2,17,5.28,6.51,13.09,23.56,27.48,30.11,19.4,8.81,38.4,2.41,50.09-2Z"/><ellipse cx="161.65" cy="407.07" rx="5.89" ry="3.27"/><ellipse cx="141.36" cy="403.8" rx="3.27" ry="5.89" transform="translate(-285.11 369.76) rotate(-66.14)"/><path d="M128.21,397.33c-1.43,1.28-4.35.83-6.48-1.38s-2.67-5.34-1.25-6.62,4.35-.83,6.48,1.38S129.63,396.05,128.21,397.33Z"/><ellipse cx="181.28" cy="404.45" rx="5.89" ry="3.27" transform="translate(-85.3 50.36) rotate(-12.83)"/><path d="M108.64,375c1.45-1.46,4.89-.73,6.54,1.31s1.72,5.39,0,6.55c-1.51,1-4.59.57-5.89-.66C107.47,380.47,107.17,376.48,108.64,375Z"/><ellipse cx="102.09" cy="365.84" rx="3.7" ry="5.55" transform="translate(-228.79 179.34) rotate(-45)"/><path d="M87.7,352.75c.74-.89,4.14-.71,5.89.66,2,1.53,2.73,5,2,5.89s-4.14.71-5.89-.66C87.7,357.11,86.92,353.68,87.7,352.75Z"/></g></g></svg>