<svg xmlns="http://www.w3.org/2000/svg" viewBox="0 0 441.94 500"><defs><style>.cls-1{fill:#e44d26;}.cls-2{fill:#f16529;}.cls-3{fill:#fff;}.cls-4{fill:#ebebeb;}</style></defs><g id="レイヤー_2" data-name="レイヤー 2"><g id="レイヤー_1-2" data-name="レイヤー 1"><path class="cls-1" d="M221,0H1A1,1,0,0,0,0,1.07L40.44,450a1,1,0,0,0,.72.86L220.71,500a1.14,1.14,0,0,0,.52,0L400.78,450.9a1,1,0,0,0,.72-.86l40.44-449A1,1,0,0,0,441,0Z"/><path class="cls-2" d="M221.62,462.88a1,1,0,0,0,1.25.94l146.42-42.08a1,1,0,0,0,.7-.85L403.37,37.14a1,1,0,0,0-1-1.07l-181.09.56a1,1,0,0,0-1,1"/><polygon class="cls-3" points="221.08 147.86 221.06 147.86 220.97 147.86 220.97 147.86 221.08 147.86"/><path class="cls-4" d="M221.06,346.28l-.12,0h0v.75a1,1,0,0,0-.72-.95l-59.54-16.27a1,1,0,0,1-.71-.85l-3.64-40.37a2,2,0,0,0-2-1.78H101.08a1,1,0,0,0-.81.46.91.91,0,0,0-.17.61l7.7,85.52a1,1,0,0,0,.72.85l111.15,30.38a.93.93,0,0,0,.33,0l.91.25V405H221V346.3h0"/><path class="cls-4" d="M220.91,203.32h-71a1,1,0,0,1-1-.89l-4.72-53.71a.92.92,0,0,1,.2-.65l76.47-.21H221V92H83.75a1,1,0,0,0-.92.66l1.32,15.65,3.59,39.93,5,55.65,4.94,54.87a1,1,0,0,0,.64.24l55.93-.13,66.64-.16v-.16H221V203.32Z"/><path class="cls-3" d="M354.37,148.22h.05l2.71-30.12.83-9.81,1.38-15.24a.91.91,0,0,0-.06-.41v-.08a1,1,0,0,0-.87-.58H221v55.88h.11"/><path class="cls-3" d="M287.17,258.53a1,1,0,0,1,1,1.07L282,329a1,1,0,0,1-.71.85L221,346.31h0V405l.09,0h0l.12,0h0l.91-.25h.08l111.23-30.4a1,1,0,0,0,.72-.85l7.75-86-.05-.09,2.57-28.55s0-.05.07-.08L349.4,204l0-.12a1,1,0,0,0-.86-.55H221v55.21h.23"/></g></g></svg>