<svg xmlns="http://www.w3.org/2000/svg" viewBox="0 0 500 486.42"><defs><style>.cls-1{fill:#300;}.cls-2{fill:#ff9a00;}</style></defs><g id="レイヤー_2" data-name="レイヤー 2"><g id="レイヤー_1-2" data-name="レイヤー 1"><path class="cls-1" d="M411.16,0H88.84C42,0,0,37,0,85.14V401.28c0,48.1,42,85.14,88.84,85.14H411.16c46.86,0,88.84-37,88.84-85.14V85.14C500,37,458,0,411.16,0Z"/><rect class="cls-2" x="330.86" y="174.07" width="46.91" height="165.43"/><circle class="cls-2" cx="354.32" cy="130.25" r="25.93"/><polygon class="cls-2" points="174.07 120.99 232.1 120.99 309.88 339.51 260.63 339.51 241.97 287.75 165.43 287.65 148.15 339.51 103.7 339.51 103.7 334.5 172.84 135.8 172.84 134.57 174.07 120.99"/><polygon class="cls-1" points="177.78 245.68 229.63 245.68 203.7 161.73 202.47 161.73 177.78 245.68"/></g></g></svg>