<svg xmlns="http://www.w3.org/2000/svg" viewBox="0 0 500 490.05"><defs><style>.cls-1{fill:#49021f;}.cls-2{fill:#f36;}</style></defs><g id="レイヤー_2" data-name="レイヤー 2"><g id="レイヤー_1-2" data-name="レイヤー 1"><path class="cls-1" d="M414.23,0H89.5C42.29,0,0,37.31,0,85.77V404.28c0,48.46,42.29,85.77,89.5,85.77H414.23c47.21,0,85.77-37.31,85.77-85.77V85.77C500,37.31,461.44,0,414.23,0Z"/><path class="cls-2" d="M322.14,216.42h12.44s7.46,0,26.12,3.73V179.1s-9.95-3.73-27.37-3.73H318.41c-27.37,0-85.82,21.15-85.82,87.07,0,56,41,87.06,85.82,87.06h14.92c17.42,0,27.37-3.73,27.37-3.73v-41c-12.44,2.48-31.1,2.48-31.1,2.48h-6.22c-46-6.21-43.53-44.77-43.53-44.77S276.12,220.15,322.14,216.42Z"/><polyline class="cls-2" points="200.25 125.62 200.25 345.77 154.23 345.77 154.23 125.62"/></g></g></svg>