<svg xmlns="http://www.w3.org/2000/svg" viewBox="0 0 500 488.83"><defs><style>.cls-1{fill:#49021f;}.cls-2{fill:#f36;}</style></defs><g id="レイヤー_2" data-name="レイヤー 2"><g id="レイヤー_1-2" data-name="レイヤー 1"><path class="cls-1" d="M413.2,0H89.28C42.18,0,0,37.22,0,85.56V403.27c0,48.34,42.18,85.56,89.28,85.56H413.2c47.1,0,86.8-37.22,86.8-85.56V85.56C500,37.22,460.3,0,413.2,0Z"/><polyline class="cls-2" points="181.14 125.31 181.14 344.91 135.24 344.91 135.24 125.31"/><path class="cls-2" d="M368.44,307.69h.05v-201H321.34v68.24h-8.75c-70.65,0-99.19,48.39-99.19,86.85,0,58.31,36,86.85,90.5,86.85l18.68-1.25c37.22-5,47.15-13.64,47.15-13.64C369.73,327.42,368.73,312.14,368.44,307.69Z"/><path class="cls-1" d="M311.15,214.64c-32,0-49.36,18.61-49.36,47.15,0,36,21.09,47.14,49.36,47.14l10.19-1.24V214.64Z"/></g></g></svg>