<svg xmlns="http://www.w3.org/2000/svg" viewBox="0 0 441.25 500"><defs><style>.cls-1{fill:#d4b830;}.cls-2{fill:none;}.cls-3{fill:#fff;}.cls-4{fill:#fdd83c;}.cls-5{fill:#ebebeb;fill-opacity:0.92;opacity:0.99;isolation:isolate;}</style></defs><g id="レイヤー_2" data-name="レイヤー 2"><g id="レイヤー_1-2" data-name="レイヤー 1"><path class="cls-1" d="M220.63,0H1A1,1,0,0,0,0,1.07L40.38,450a1,1,0,0,0,.72.86L220.37,500a1.14,1.14,0,0,0,.52,0L400.16,450.9a1,1,0,0,0,.72-.86l40.37-449a1,1,0,0,0-1-1.07Z"/><line class="cls-2" x1="178.98" y1="174.9" x2="178.98" y2="174.89"/><polygon class="cls-3" points="220.74 147.86 220.71 147.86 220.63 147.86 220.63 147.86 220.74 147.86"/><path class="cls-4" d="M220,37.61a1,1,0,0,1,1-1l180.82-.56a1,1,0,0,1,1,1.07L369.42,420.89a1,1,0,0,1-.7.85L222.53,463.82a1,1,0,0,1-1.25-.94Z"/><path id="path5117" class="cls-3" d="M358.79,360.82,370.8,215,282,224.94V147.09l94.71-.35,3.83-53.17-142.94.7,1.91,193.57,86.36-14.77-1.22,43.1-87.05,23.11.87,52.82,120.31-31.28Z"/><path id="path5157" class="cls-5" d="M72.59,356.8l-.17-53.39s55,15.48,86.15,23.48L159.1,93.5h44.29V392.1L72.59,356.8Z"/></g></g></svg>