<svg xmlns="http://www.w3.org/2000/svg" viewBox="0 0 371.33 500"><defs><style>.cls-1{fill:#5582a9;}.cls-2{fill:#5384a0;}.cls-3{fill:#e86c00;}.cls-4{fill:#e76b00;}.cls-5{fill:#5181a2;}.cls-6{fill:#5783a1;}.cls-7{fill:#5583a1;}.cls-8{fill:#5783a2;}</style></defs><g id="レイヤー_2" data-name="レイヤー 2"><g id="レイヤー_1-2" data-name="レイヤー 1"><path class="cls-1" d="M350.64,312.27c5.85-40.91-33.16-38.92-44.95-37.42a.29.29,0,0,1-.16-.56c11.85-4.8,56.55-15.58,65.55,26.63h0s7.91,42.51-67,62c-.32.08-.55-.33-.28-.52C311.5,356.9,348.1,330.05,350.64,312.27Z"/><path class="cls-2" d="M120.7,272.53c-.92-2.44-80.95,17.84-79.49,28.39,4.09,29.63,227.7,15.29,240.73-3.62a1.18,1.18,0,0,0-1.09-1.87c-19,2.13-194.68,21.29-202.74-.19C75.08,287.16,121.37,274.33,120.7,272.53Z"/><path class="cls-3" d="M208.7,286.72c-4.46,5.21,34.07-25.55,34.07-45.42,0-24.87-25-33.33-28.39-56.77-6.29-43.29,84.94-80.94,82.33-85.17-1.27-2-110.35,35.3-107.88,93.68.32,7.58,2.89,24.39,23.34,43.75A21.66,21.66,0,0,1,219,250C220,259.17,219.53,274.09,208.7,286.72Z"/><path class="cls-4" d="M123.54,164.65c-15.79,47.35,59.61,102.2,62.45,105,3.22,3.22-48.34-50.79-36.9-96.52,8-32.24,62.45-56.78,88-99.36,17-28.36,11.34-49.12,2.84-73.81a76.73,76.73,0,0,1,.6,28.62,109.82,109.82,0,0,1-6.28,19.64C214.38,93.68,134.89,130.59,123.54,164.65Z"/><path class="cls-5" d="M370.52,457.05c.66,2.09-22.72,39.75-141.95,42.59s-156.4-11.87-156.13-14.2c.24-2.14,68.13,8.52,153.29,5.68C316.57,488.09,369.85,455,370.52,457.05Z"/><path class="cls-6" d="M105.08,330.73c-3.72-3.7-24.7,11.56-24.13,18.45,2.84,34.06,207.24,17,190.21,5.68s-17-11.36-22.72-11.36c-4,0-124.9,19.87-147.62,0C98.06,341.08,107.06,332.69,105.08,330.73Z"/><path class="cls-7" d="M113.6,387.5c-7.1,1.42-18.12,10-15.61,15.62,18.45,41.16,185.94,12.77,168.91,7.09-13.47-4.48-27.09-13.59-29.81-12.77-28.39,8.52-103,8.13-119.23,0C112.18,394.6,120.7,386.08,113.6,387.5Z"/><path class="cls-8" d="M76.69,421.57c-27-1.42-78.43,18.69-76.64,31.23,4.25,29.8,336.4,32.64,349.17-14.2,1.91-7-8.29-12.51-7.09-9.93,19.87,42.58-295.24,36.9-309.44,17C24.44,434.15,78.78,421.68,76.69,421.57Z"/></g></g></svg>