<svg xmlns="http://www.w3.org/2000/svg" viewBox="0 0 480.78 500"><defs><style>.cls-1{fill:#0c6aac;}.cls-2{fill:#141414;}.cls-3{fill:#fff;}</style></defs><g id="レイヤー_2" data-name="レイヤー 2"><g id="レイヤー_1-2" data-name="レイヤー 1"><path class="cls-1" d="M403.15,237.07c3-4.08-31.72,82.64-136,86-98.5,3.15-172-63.44-192.81-143.57C52.81,97,104.34,49.27,107.67,49.27c1.67,0-41.73,117.69,74.29,196.15,4.55,3.08,25.79,16.71,38.58,22.23,54.91,23.68,99.14,12,120.74,7.17C350.35,272.79,391.47,252.93,403.15,237.07Z"/><path class="cls-1" d="M196.15,18.39c1.67,0-21.7,68.44,30,121,3.78,3.84,35.06,34.22,74.29,43.4,73.71,17.25,110.87-34.22,112.68-34.22.83,0-24.22,70.34-115.19,66.77-42.57-1.67-86.1-26.63-109.34-65.94C142.73,71.81,195.32,18.39,196.15,18.39Z"/><path class="cls-1" d="M269.6,0c.84,1.67-6.33,39.76,14.19,63.44,10.85,12.52,26.71,31.72,61.77,38.4,29.12,5.54,50.91-10.37,50.91-9.19,0,2.51-17.52,29.22-55.08,28.38s-60.21-19.13-76-45.9C240.39,32.58,269.08-1,269.6,0Z"/><polygon class="cls-2" points="40.9 386.48 63.44 386.48 59.26 404.85 36.73 404.85 40.9 386.48"/><path class="cls-2" d="M35.89,411.52H58.43s-13.36,60.1-16.7,69.28c-3,8.19-4.17,15-20,19.2L0,499.17c.83-6.68,4.17-16.7,4.17-19.2l11.69-.84c3.34-3.34,10-18.36,11.68-32.55C30.29,423.24,35.89,411.52,35.89,411.52Z"/><path class="cls-2" d="M151.91,446.58H163.6a174.68,174.68,0,0,1-5,20H89.31c-25.87-5.84-26.71-37.56-19.2-60.93C79,378,99.73,361.78,126.87,364c41.74,3.34,38,41.59,37.56,43.4A375.82,375.82,0,0,1,151.91,446.58Z"/><path class="cls-3" d="M129.38,446.58h-25C91,443.24,90.7,436.51,91,430.72c.57-11.94,5-28.38,10-35.89s14.19-10.85,25.87-9.18c10.45,1.49,14.19,10,13.36,20.87Z"/><path class="cls-2" d="M231.21,386.48h20.86l-16.69,80.13H187.8a20.13,20.13,0,0,1-16.69-17.53c-.83-15,7.51-46.74,10.85-62.6h20.87c0,9.18-2.51,14.19-7.51,40.9a58,58,0,0,0,0,19.2h22.53Z"/><path class="cls-2" d="M326.36,434.89H274.61c-1.67,9.19,3.37,11.28,6.68,11.69,13.35,1.67,41.73.83,41.73.83l-4.17,19.2H270.44c-10,0-18.55-9-19.2-17.53-1.67-21.7,9.95-45.67,10.85-46.74,2.5-3,13.36-18.36,40.07-18.36,2.5,0,28.37,1.67,28.37,23.37A105.4,105.4,0,0,1,326.36,434.89Z"/><path class="cls-3" d="M308,416.53H278.78c-.83-3.34,6.68-11.68,11.69-12.52h8.35c2.26.52,7.51,2.51,8.34,5.84C307.45,411,308,416.53,308,416.53Z"/><path class="cls-2" d="M332.2,466.61h20.87l13.36-60.93h48.41c-1.67-14.19-3.34-15.86-14.19-19.2H348.9Z"/><path class="cls-2" d="M398.14,466.61h23.38c3.33-15,16.69-35.89,25-45.9C473.1,388.85,480.78,374,480.78,374H454.9L420.68,424c-.36.1-.16.27-.83,0l-3.34-13.35H393.14c.83,10,7.51,25,8.34,32.55C402.78,454.89,399.81,459.1,398.14,466.61Z"/></g></g></svg>