<svg xmlns="http://www.w3.org/2000/svg" viewBox="0 0 500 483.32"><defs><style>.cls-1{fill:#326de6;}.cls-2{fill:#fff;}</style></defs><g id="レイヤー_2" data-name="レイヤー 2"><g id="レイヤー_1-2" data-name="レイヤー 1"><path id="path10349" class="cls-1" d="M456.26,107.49c-2.86-9.15-9.72-16.58-18.3-21.15L263.57,2.86C259,.57,253.85,0,249.28,0S239.56,0,235,1.14L60.59,85.19a30.77,30.77,0,0,0-17.15,21.16L.56,294.46a36.06,36.06,0,0,0,6.29,27.45L127.49,471.14a41.62,41.62,0,0,0,26.3,12H345.91c10.29,1.14,20-3.43,26.3-12L492.85,321.91a39,39,0,0,0,6.86-27.45l-43.45-187Z"/><path id="path10351" class="cls-2" d="M429.63,282.6h0c-.57,0-1.14,0-1.14-.57s-1.14-.58-2.29-.58a27.87,27.87,0,0,0-6.86-.57,7.27,7.27,0,0,1-3.43-.57h-.57a115.91,115.91,0,0,1-19.44-3.43,6.89,6.89,0,0,1-4-4h0l-4.58-1.15c2.29-16.58,1.15-33.73-2.28-50.31a155.17,155.17,0,0,0-20-46.89l3.43-3.43h0v-.57a8,8,0,0,1,1.72-5.15,102.68,102.68,0,0,1,16-11.43h0l3.43-1.72c2.29-1.14,4-2.28,6.29-3.43.57-.57,1.14-.57,1.71-1.14s0-.57,0-1.14h0c5.15-4,6.29-10.87,2.29-16a10.9,10.9,0,0,0-8-4,13.72,13.72,0,0,0-8,2.86h0l-.57.57c-.57.58-1.14,1.15-1.72,1.15a37,37,0,0,0-4.57,5.14c-.57,1.15-1.71,1.72-2.29,2.29h0a75.09,75.09,0,0,1-14.29,12.58,8.14,8.14,0,0,1-3.43,1.14,3.45,3.45,0,0,1-2.29-.57h-.57l-4.57,2.86c-4.58-4.57-9.72-9.15-14.3-13.72-21.15-16.58-47.46-26.88-74.33-29.73l-.57-4.58h0v.57c-1.72-1.14-2.29-2.86-2.86-4.57a114.57,114.57,0,0,1,1.14-19.44v-.57c0-1.15.58-2.29.58-3.43.57-2.29.57-4.58,1.14-6.87V68.75h0a11.31,11.31,0,0,0-9.72-12c-3.43-.57-6.86,1.14-9.72,4a11.29,11.29,0,0,0-3.43,8h0v2.86a28.69,28.69,0,0,0,1.14,6.86,7.29,7.29,0,0,1,.57,3.43v.58c1.15,6.29,1.15,12.58,1.15,19.44-.57,1.71-1.15,3.43-2.86,4.57v1.14h0l-.57,4.58c-6.29.57-12.58,1.71-19.44,2.86a136.31,136.31,0,0,0-70.33,40l-3.43-2.29h-.57c-.58,0-1.15.58-2.29.58a8.16,8.16,0,0,1-3.43-1.15,105.15,105.15,0,0,1-14.3-13.15h0c-.57-1.14-1.71-1.71-2.28-2.29-1.72-1.71-2.86-3.43-4.58-5.14-.57-.57-1.14-.57-1.71-1.14l-.57-.58h0a13.72,13.72,0,0,0-8-2.86c-3.43,0-6.29,1.15-8,4a12.3,12.3,0,0,0,2.28,16h0a.56.56,0,0,1,.57.57s1.15,1.14,1.72,1.14a60.63,60.63,0,0,0,6.29,3.43L112.3,154h0c5.72,3.43,11.44,6.86,16,11.43,1.14,1.15,2.29,3.43,1.72,5.15V170h0l3.43,3.43c-.58,1.14-1.15,1.71-1.72,2.86-17.72,28-25.16,61.18-20,93.77l-4.58,1.14h0a.56.56,0,0,1-.57.57c-.57,1.72-2.28,2.86-4,4a107.39,107.39,0,0,1-19.44,3.43h0a7.27,7.27,0,0,0-3.43.57c-2.29,0-4.57.57-6.86.57-.57,0-1.15.57-2.29.57-.57,0-.57,0-1.14.57h0a11.16,11.16,0,0,0-9.15,13.15h0a10.61,10.61,0,0,0,11.43,8,5.16,5.16,0,0,0,2.86-.57h0c.58,0,.58,0,.58-.57s1.71,0,2.28,0c2.29-.58,4.58-1.72,6.29-2.29A8.21,8.21,0,0,1,87.14,298h.57a102.25,102.25,0,0,1,18.87-5.14h.57a6.52,6.52,0,0,1,4.58,1.71.57.57,0,0,1,.57.58h0l5.15-.58a137.9,137.9,0,0,0,46.88,66.9c5.15,4,9.72,7.43,15.44,10.29l-2.86,4h0a.56.56,0,0,0,.57.57,6.71,6.71,0,0,1,.57,5.72,93.77,93.77,0,0,1-9.14,16.58v.57a10.41,10.41,0,0,1-2.29,2.86c-1.14,1.14-2.29,3.43-4,5.71-.58.58-.58,1.15-1.15,1.72a.56.56,0,0,1-.57.57h0a11.77,11.77,0,0,0,4.58,15.44,10.56,10.56,0,0,0,4,1.14c4.57,0,8.57-2.86,10.86-6.86h0a.56.56,0,0,1,.57-.57c0-.57.57-1.14,1.15-1.72.57-2.28,1.71-4,2.28-6.28l1.15-3.44h0c1.71-6.28,4.57-12,7.43-17.72a8.85,8.85,0,0,1,4.57-3.43c.58,0,.58,0,.58-.57h0l2.28-4.58a134.59,134.59,0,0,0,49.75,9.15,114.4,114.4,0,0,0,30.87-4c6.29-1.14,12.58-3.43,18.3-5.15l2.29,4h0c.57,0,.57,0,.57.57a8.85,8.85,0,0,1,4.57,3.43c2.86,5.72,5.72,11.43,7.44,17.72v.57l1.14,3.44a20.23,20.23,0,0,0,2.29,6.28c.57.58.57,1.15,1.14,1.72a.56.56,0,0,0,.57.57h0c2.29,4,6.29,6.86,10.87,6.86a13.53,13.53,0,0,0,4.57-1.14,9.58,9.58,0,0,0,5.15-6.29,14.69,14.69,0,0,0-.58-8.58h0a.56.56,0,0,0-.57-.57c0-.57-.57-1.14-1.14-1.71a20.67,20.67,0,0,0-4-5.72,10.27,10.27,0,0,0-2.29-2.86v-1.14a67.94,67.94,0,0,1-9.15-16.58,6.79,6.79,0,0,1,.57-5.72.56.56,0,0,1,.57-.57h0l-1.71-4.58c29.16-17.72,51.46-45.17,61.75-77.76l4.57.57h0a.56.56,0,0,0,.58-.57,6.5,6.5,0,0,1,4.57-1.71h.57a95.71,95.71,0,0,1,18.3,5.14h.57a8.14,8.14,0,0,0,3.43,1.14c2.29,1.15,4,2.29,6.29,2.86.57,0,1.14.58,2.29.58.57,0,.57,0,1.14.57h0a5.17,5.17,0,0,0,2.86.57,12.44,12.44,0,0,0,11.44-8,13.48,13.48,0,0,0-10.3-12ZM264.39,264.87,249,272.3l-15.43-7.43-4-16.58,10.87-13.72h17.15l10.86,13.72Zm93.2-37.16a109.5,109.5,0,0,1,2.29,36l-54.32-15.44h0c-5.15-1.14-8-6.29-6.86-11.43a9.18,9.18,0,0,1,2.29-4L343.87,194A116.32,116.32,0,0,1,357.59,227.71Zm-30.88-54.89L279.83,206c-4,2.29-9.72,1.71-12.58-2.29a5.18,5.18,0,0,1-1.71-4l-3.44-57.75a107.56,107.56,0,0,1,64.61,30.88ZM223.22,143.66l11.44-2.29-2.86,57.18h0c0,5.14-4.57,9.14-9.72,9.14a13.47,13.47,0,0,1-4.57-1.14l-47.46-33.73A113.47,113.47,0,0,1,223.22,143.66ZM153.47,194l42.31,37.74h0a9.19,9.19,0,0,1,1.14,13.15c-1.14,1.72-2.28,2.29-4.57,2.86l-55.46,16A120.32,120.32,0,0,1,153.47,194Zm-9.72,96.63,56.6-9.72c4.58,0,9.15,2.86,9.72,7.43a6.71,6.71,0,0,1-.57,5.72h0l-21.73,52.61A112.51,112.51,0,0,1,143.75,290.6Zm129.79,70.9A115.37,115.37,0,0,1,249,364.36a128.23,128.23,0,0,1-36-5.72l28-50.89a8.86,8.86,0,0,1,11.43-2.28,28.23,28.23,0,0,1,4.58,4h0l27.44,49.74A95.3,95.3,0,0,0,273.54,361.5Zm69.76-49.74A109.19,109.19,0,0,1,309,346.06l-22.3-53.74a9.3,9.3,0,0,1,5.15-10.87,16.7,16.7,0,0,1,5.14-1.14L354.16,290C351.3,298,347.87,305.47,343.3,311.76Z"/></g></g></svg>