<svg xmlns="http://www.w3.org/2000/svg" xmlns:xlink="http://www.w3.org/1999/xlink" viewBox="0 0 500 500"><defs><style>.cls-1{fill:#fff;opacity:0;}.cls-2{fill:#d7d7d7;}.cls-3{fill:url(#名称未設定グラデーション_6);}.cls-4{fill:#c6c8cc;}.cls-5{fill:#a8aeb7;}.cls-6{stroke:#b9bec9;opacity:0.6;fill:url(#名称未設定グラデーション_13);}.cls-10,.cls-17,.cls-6,.cls-8,.cls-9{stroke-miterlimit:10;}.cls-6,.cls-9{stroke-width:3px;}.cls-7{fill:#aaaab4;opacity:0.24;}.cls-10,.cls-17,.cls-8,.cls-9{fill:none;}.cls-8{stroke:#c1c4ca;}.cls-10,.cls-8{stroke-width:2px;}.cls-9{stroke:#5a646e;}.cls-10,.cls-9{opacity:0.7;}.cls-10{stroke:#797d8a;}.cls-11{fill:#5c6063;}.cls-12{fill:#a9afb7;}.cls-13{fill:#c5c5c5;}.cls-14{fill:url(#名称未設定グラデーション_6-2);}.cls-15{fill:url(#名称未設定グラデーション_6-3);}.cls-16{fill:#191b1c;}.cls-17{stroke:#303131;stroke-width:4px;}</style><linearGradient id="名称未設定グラデーション_6" x1="658.83" y1="-59.78" x2="1003.32" y2="350.76" gradientTransform="translate(-593.11 218.2) rotate(-7.77)" gradientUnits="userSpaceOnUse"><stop offset="0" stop-color="#a7a8a9"/><stop offset="1" stop-color="#181a1c"/></linearGradient><linearGradient id="名称未設定グラデーション_13" x1="744.28" y1="-8.19" x2="916.85" y2="197.48" gradientTransform="translate(-593.11 218.2) rotate(-7.77)" gradientUnits="userSpaceOnUse"><stop offset="0" stop-color="#e8e9f0"/><stop offset="1" stop-color="#f8f9fb"/></linearGradient><linearGradient id="名称未設定グラデーション_6-2" x1="645.61" y1="-49.54" x2="990.1" y2="361" xlink:href="#名称未設定グラデーション_6"/><linearGradient id="名称未設定グラデーション_6-3" x1="850.49" y1="-221.45" x2="1194.97" y2="189.09" xlink:href="#名称未設定グラデーション_6"/></defs><g id="レイヤー_2" data-name="レイヤー 2"><g id="レイヤー_1-2" data-name="レイヤー 1"><rect class="cls-1" width="500" height="500"/><path class="cls-2" d="M410.88,30c-2-12.82-11.94-26.1-34.47-23L219.75,28.32,63.09,49.7c-22.52,3.07-28.54,18.52-27,31.42.09.76,26.53,194.45,26.53,194.45S89,469.27,89.12,470c2,12.82,11.94,26.1,34.47,23l156.66-21.37L436.91,450.3c22.52-3.07,28.54-18.52,27-31.42-.09-.76-26.53-194.45-26.53-194.45S411,30.73,410.88,30Z"/><path class="cls-3" d="M367.51,24.07,221.88,43.94,76.26,63.81c-28.69,3.92-27.05.1-23.11,28.93L77.81,273.5l24.66,180.75c3.94,28.83,1.33,25.59,30,21.68l145.63-19.87,145.62-19.87c28.69-3.92,27.05-.1,23.11-28.93L422.19,226.5,397.53,45.75C393.59,16.92,396.2,20.16,367.51,24.07Z"/><rect class="cls-4" x="197.84" y="364.78" width="143.39" height="64.33" transform="matrix(0.99, -0.14, 0.14, 0.99, -51.19, 40.09)"/><circle class="cls-5" cx="242.62" cy="199.69" r="136.27"/><circle class="cls-6" cx="242.62" cy="199.69" r="134.24"/><path class="cls-7" d="M297.3,77.67l-2.92,17.46-3.18,19.06-3.55,21.26-4.42,26.4-4.35,26L273,223l-4.35,26-4.42,26.41-3.55,21.23-3.18,19.05-3,17.75c1.74-.17,3.47-.36,5.21-.6A134.25,134.25,0,0,0,297.3,77.67Z"/><circle class="cls-8" cx="243.13" cy="199.62" r="116.95"/><circle class="cls-8" cx="243.13" cy="199.62" r="98.64"/><circle class="cls-8" cx="243.13" cy="199.62" r="78.81"/><circle class="cls-9" cx="243.13" cy="199.62" r="55.93"/><circle class="cls-10" cx="243.13" cy="199.62" r="38.64"/><circle class="cls-11" cx="243.13" cy="199.62" r="4.58"/><rect class="cls-12" x="200.96" y="367.62" width="138.31" height="59.53" transform="translate(-51.24 40.17) rotate(-7.77)"/><path class="cls-13" d="M409.87,30.11c-2-12.83-11.94-26.1-34.47-23l-67.85,9.25-2.72,16.28,61.67-8.41c5.57-.76,9.95-1.49,13.44-2,15-2.11,13.86.09,17.07,23.58l24.66,180.76,24.67,180.75c3.2,23.49,4.88,25.31-10.13,27.29-3.49.47-7.9.94-13.48,1.7L277.6,456.13l-.49.06-44.08,6-2.72,16.28,48.93-6.68L435.9,450.44c22.53-3.08,28.54-18.52,27-31.42-.09-.76-26.54-194.45-26.54-194.45S410,30.87,409.87,30.11Z"/><path class="cls-2" d="M422.73,436.32c5.58-.76,10-1.23,13.48-1.7-3.41.45-7.68.91-13,1.64Z"/><path class="cls-14" d="M422.73,436.32c5.58-.76,10-1.23,13.48-1.7-3.41.45-7.68.91-13,1.64Z"/><path class="cls-2" d="M379.94,22.24c-3.49.48-7.87,1.21-13.44,2l.49-.07C372.3,23.42,376.54,22.72,379.94,22.24Z"/><path class="cls-15" d="M379.94,22.24c-3.49.48-7.87,1.21-13.44,2l.49-.07C372.3,23.42,376.54,22.72,379.94,22.24Z"/><path class="cls-2" d="M396.52,45.89l24.66,180.75L445.85,407.4c3.17,23.22,4.84,25.26-9.64,27.22,15-2,13.33-3.8,10.13-27.29L421.67,226.58,397,45.82c-3.21-23.49-2.07-25.69-17.07-23.58C394.42,20.25,393.35,22.66,396.52,45.89Z"/><path class="cls-2" d="M376.63,181.4A136.27,136.27,0,0,1,260,334.85q-2.93.39-5.83.66l-5.32,31.79,86.33-11.78,8.7,63.74L237.79,433.74,233,462.21l44.08-6,.49-.06,145.13-19.81.49-.06c5.31-.73,9.58-1.19,13-1.64,14.48-2,12.81-4,9.64-27.22L421.18,226.64,396.52,45.89c-3.17-23.23-2.1-25.64-16.58-23.65-3.4.48-7.64,1.18-12.95,1.9l-.49.07-61.67,8.41-7.18,43A136.15,136.15,0,0,1,376.63,181.4Z"/><path class="cls-16" d="M376.63,181.4A136.27,136.27,0,0,1,260,334.85q-2.93.39-5.83.66l-5.32,31.79,86.33-11.78,8.7,63.74L237.79,433.74,233,462.21l44.08-6,.49-.06,145.13-19.81.49-.06c5.31-.73,9.58-1.19,13-1.64,14.48-2,12.81-4,9.64-27.22L421.18,226.64,396.52,45.89c-3.17-23.23-2.1-25.64-16.58-23.65-3.4.48-7.64,1.18-12.95,1.9l-.49.07-61.67,8.41-7.18,43A136.15,136.15,0,0,1,376.63,181.4Z"/><polygon class="cls-4" points="335.22 355.52 248.89 367.3 248.39 370.31 333.6 358.68 341.64 417.66 238.11 431.79 237.79 433.74 343.92 419.26 335.22 355.52"/><path class="cls-5" d="M376.63,181.4a136.15,136.15,0,0,0-79-105.8l-.35,2.07a134.25,134.25,0,0,1-37.54,255.16c-1.74.24-3.47.43-5.21.6l-.34,2.08q2.91-.27,5.83-.66A136.27,136.27,0,0,0,376.63,181.4Z"/><path class="cls-17" d="M368,24,222.37,43.88,76.75,63.75C48.06,67.66,48.69,64,52.63,92.81L77.29,273.57,102,454.32c3.94,28.83,2.34,25.46,31,21.54L278.61,456l145.62-19.87c28.69-3.92,27-.1,23.11-28.93L422.68,226.44,398,45.68C394.08,16.85,396.69,20.09,368,24Z"/></g></g></svg>