<svg xmlns="http://www.w3.org/2000/svg" viewBox="0 0 500 500"><defs><style>.cls-1{fill:#3a3c5b;}.cls-2{fill:#fff;}</style></defs><g id="レイヤー_2" data-name="レイヤー 2"><g id="レイヤー_1-2" data-name="レイヤー 1"><path class="cls-1" d="M500,250c0,138.07-111.93,250-250,250S0,388.07,0,250,111.93,0,250,0,500,111.93,500,250"/><path class="cls-2" d="M424.15,268.49c-8.42-53.15-64.18-87.58-105.71-113.55-18.14-11.34-47.55-26.12-51.35-50-1.57-9.85-1.51-20-1.84-30-.13-3.91-.19-7.84-.54-11.74-.45-5-5.57,1.17-8.38-3.22-6.95-10.87-4.28,3.29-3.59,9,1.61,13.45,3.49,26.85,3.39,40.42-.21,25.93-4.39,50.75-10.86,75.73-15.14,58.51-27.08,118.45-12.1,178.32a210.1,210.1,0,0,0,12.45,36.29c1.6,3.52,4.68,13.35,9.09,14.53,15.9,4.24,27.92,5.47,40.62,17.29,7.89,7.35,13.8,3.34,23.13-.4,28.24-11.3,52.73-25.53,72.74-48.81,28.14-32.72,39.75-71,32.95-113.89M394.28,322c-2.51,21.86-16.22,41.44-30.22,57.68-10.15,11.77-23.89,27-38.94,32.4-5.42,1.93,1-8.91,1.79-10.1,4.66-7,10.4-13.19,15.73-19.67,7.89-9.59,14.72-19.65,19.33-31.26,15.33-38.52,11.85-85.22-10.84-119.93-12.34-18.89-29.29-34.86-46.38-49.44-8.25-7-16.6-13.69-23.55-22.11-1.6-2-15.79-20.52-11.38-23.27,1.43-.89,32.43,31.73,35.81,34.27,12.82,9.68,26,18.64,37.87,29.54,16.07,14.76,32.57,31.24,41.77,51.32,10.09,22,11.73,46.79,9,70.57"/><path class="cls-2" d="M240.79,6.74c4.66,3.1,5.69,21.2,5.69,37.75s1.55,87.92-3.62,107-17.07,40.34-30,59-27.92,57.92-27.4,82.23,14.48,64.13,25.34,80.68,29.4,39.76,25.34,45c-7.24,9.31-36.72-22.75-52.24-41.37s-31-56.37-31.54-85.85,16-56.89,27.92-73.44,35.17-45,41.38-57.92,12.93-26.89,15-45,0-82.75,0-82.75-.51-28.45,4.14-25.34"/><path class="cls-2" d="M228.38,37.25c4.65,2.07,5.17,7.76,5.17,13.45s-1.55,29-3.1,51.72-19.65,41.88-33.1,55.33-52.23,55.34-66.71,76-21.7,47.93-20.17,70.85c1.55,23.27,7.24,46,29,70.33s36.72,35.68,48.09,41.37,22.76,9.83,20.17,15-13.44,1.55-25.34-2.58-52.23-20.69-75.51-47.06-35.16-61.55-34.13-95.17S83.06,239,98.57,217.22s58.44-53.78,71.89-62.05S202,132.93,210.8,121.55s13.44-20.69,12.92-36.2,1-29.48.52-34.65-.52-15.52,4.14-13.45m1.29,405.38c2.11-.08.78,9-2.93,13.56s-10.1,7.24-10.87,5.42,4.6-2.87,8.56-7.27c3.63-4,2.67-11.6,5.24-11.71m41.86-.24c-2.1-.08-.77,9,2.94,13.55s10.09,7.24,10.87,5.42-4.61-2.86-8.56-7.26c-3.63-4-2.67-11.6-5.25-11.7m-18.6,9.88c0,8,.4,14.41-1.34,14.41-2.14,0-1.33-6.45-1.33-14.41s-.72-14.41,1.33-14.41c1.9,0,1.33,6.45,1.33,14.41"/></g></g></svg>