<svg xmlns="http://www.w3.org/2000/svg" viewBox="0 0 500 487.6"><defs><style>.cls-1,.cls-4{fill:#061e26;}.cls-1,.cls-2,.cls-5{fill-rule:evenodd;}.cls-2{fill:#26c9ff;}.cls-3,.cls-5{fill:#d9f5ff;}</style></defs><g id="レイヤー_2" data-name="レイヤー 2"><g id="レイヤー_1-2" data-name="レイヤー 1"><path class="cls-1" d="M97.67,20.81H402.33a76.86,76.86,0,0,1,76.86,76.86V389.92a76.87,76.87,0,0,1-76.86,76.87H97.67a76.87,76.87,0,0,1-76.86-76.87V97.67A76.86,76.86,0,0,1,97.67,20.81Z"/><path class="cls-2" d="M0,92.88V394.72A92.88,92.88,0,0,0,92.88,487.6H407.12A92.88,92.88,0,0,0,500,394.72V92.88A92.88,92.88,0,0,0,407.12,0H92.88A92.88,92.88,0,0,0,0,92.88ZM97.67,20.81H402.33a76.86,76.86,0,0,1,76.86,76.86V389.92a76.87,76.87,0,0,1-76.86,76.87H97.67a76.87,76.87,0,0,1-76.86-76.87V97.67A76.86,76.86,0,0,1,97.67,20.81Z"/><path class="cls-3" d="M123.42,121.4V344a1,1,0,0,0,1,1h33.72a1,1,0,0,0,1-1V263.4h21.87c11.55,0,43.32-2.9,62.82-26.91C259.24,217.43,258,195.77,258,188.58c0-19-4.26-32.05-12.1-42.22-17.55-22.73-46.6-27.86-63.11-27.86-9.53,0-18.16,0-23.91,0l-33.61.91A1.94,1.94,0,0,0,123.42,121.4Z"/><path class="cls-4" d="M158.66,150.23v80.66H180c18.56,0,41.16-7.77,41.16-41.78,0-33-24.64-38.88-39.22-38.88Z"/><path class="cls-5" d="M340.75,346.68c15.2-.26,41-16.81,43.36-41.63.7-7.22.81-12.58.81-15.22,0-37.63-65.66-49.64-65.66-66.45v-6.31s3.15-11.27,21.62-10.5c19.22.8,37.63,11.21,37.63,8v-32c0-3.2-14.41-5.61-20.31-6.41-6.85-.93-14.92-1-28.81-.8-9,.12-40.55,9.61-45.36,40-.38,2.4.12,9.6.8,19.22,2.41,33.63,67.26,43.24,64.86,64.85-2.33,21-46.46,17.12-63.91,3.13a1.07,1.07,0,0,0-1.75.82v33a1.07,1.07,0,0,0,.6,1c3.19,1.52,18.33,8.51,29,8.51Z"/></g></g></svg>