<svg xmlns="http://www.w3.org/2000/svg" viewBox="0 0 500 490.05"><defs><style>.cls-1{fill:#001e36;}.cls-2{fill:#31a8ff;}.cls-3{fill:#30a8ff;fill-rule:evenodd;}</style></defs><g id="レイヤー_2" data-name="レイヤー 2"><g id="レイヤー_1-2" data-name="レイヤー 1"><path class="cls-1" d="M414.23,0H89.5C42.29,0,0,37.31,0,85.77V404.28c0,48.46,42.29,85.77,89.5,85.77H414.23c41,0,85.77-37.31,85.77-85.77V85.77C500,37.31,454,0,414.23,0Z"/><path class="cls-2" d="M185.32,125.62H111.94V345.77h44.67V276.12h20c17.42,0,92.05,1.24,92.05-77.12C268.66,141.79,221.39,125.62,185.32,125.62Z"/><path class="cls-1" d="M176.61,165.42H156.72v70.9h19.89c17.42,0,47.27-5,47.27-36.07S194,165.42,176.61,165.42Z"/><path class="cls-3" d="M371.89,248.76c-32.34-12.44-37.31-17.42-37.31-23.64,0-8.7,12.43-11.19,12.43-11.19h17.42c9.95,0,29.85,6.22,35.18,10a18.1,18.1,0,0,0,3.38,0v-38.6s-13.69-8.7-38.56-8.7h-18.9s-44.53,3.73-53.24,41a46.54,46.54,0,0,0,0,22c6.22,25.27,33.58,37.7,47.26,42.68,5.85,2.12,27.37,8.7,27.37,18.66s-9.95,11.19-16.17,12.43c0,0-16-.89-18.8-1.24-29.71-3.73-34.69-13.68-40.91-12.44v39.7c0,1.35,18.66,10.05,43.54,11.3l12.9.09c43.07,0,64.21-28.7,64.21-44.87V291.52S413.06,264.59,371.89,248.76Z"/></g></g></svg>