<svg xmlns="http://www.w3.org/2000/svg" xmlns:xlink="http://www.w3.org/1999/xlink" viewBox="0 0 500 263.02"><defs><style>.cls-1{fill:none;}.cls-2{clip-path:url(#clip-path);}.cls-3{fill:url(#名称未設定グラデーション_5);}.cls-4{fill:#777bb3;}.cls-5{fill:#fff;}</style><clipPath id="clip-path"><path id="SVGID" class="cls-1" d="M0,131.51C0,204.14,111.93,263,250,263h0c138.07,0,250-58.88,250-131.51h0C500,58.88,388.07,0,250,0h0C111.93,0,0,58.88,0,131.51"/></clipPath><radialGradient id="名称未設定グラデーション_5" cx="-59.02" cy="-6073.67" r="0.72" gradientTransform="matrix(453.82, 0, 0, -453.82, 26934.02, -2756323.27)" gradientUnits="userSpaceOnUse"><stop offset="0" stop-color="#aeb2d5"/><stop offset="0.3" stop-color="#aeb2d5"/><stop offset="0.75" stop-color="#484c89"/><stop offset="1" stop-color="#484c89"/></radialGradient></defs><g id="レイヤー_2" data-name="レイヤー 2"><g id="レイヤー_1-2" data-name="レイヤー 1"><g class="cls-2"><g id="g3442"><g id="g3448"><g id="g3450"><path id="path3462" class="cls-3" d="M0,131.51C0,204.14,111.93,263,250,263h0c138.07,0,250-58.88,250-131.51h0C500,58.88,388.07,0,250,0h0C111.93,0,0,58.88,0,131.51"/></g></g></g></g><g id="g3466"><g id="g3472"><path id="path3474" class="cls-4" d="M250,253.25c132.68,0,240.23-54.5,240.23-121.74S382.68,9.76,250,9.76,9.77,64.27,9.77,131.51,117.32,253.25,250,253.25"/></g></g><g id="g3478"><g id="g3484"><path id="path3486" d="M135.83,146.6c10.91,0,19-2,24.2-6s8.62-10.73,10.47-20.22c1.72-8.86,1.06-15-1.95-18.4s-9.74-5.14-19.8-5.14H131.32l-9.66,49.73Zm-57,61.26a2.7,2.7,0,0,1-2.66-3.22l25.62-131.8a2.7,2.7,0,0,1,2.66-2.19h55.21c17.35,0,30.26,4.71,38.38,14s10.68,22.4,7.49,38.81a60,60,0,0,1-18.86,33.77,53.69,53.69,0,0,1-20.1,12c-7.24,2.36-16.53,3.56-27.63,3.56H116.56l-6.38,32.84a2.72,2.72,0,0,1-2.67,2.19Z"/></g><g id="g3488"><path id="path3490" class="cls-5" d="M133.56,99.58h15.2c12.13,0,16.35,2.67,17.78,4.25,2.37,2.64,2.82,8.19,1.3,16.07-1.72,8.82-4.9,15.07-9.46,18.58s-12.26,5.41-22.55,5.41H125Zm26.07-31.64H104.42a5.43,5.43,0,0,0-5.33,4.39L73.48,204.12a5.43,5.43,0,0,0,5.32,6.46h28.71a5.43,5.43,0,0,0,5.33-4.39l6-30.65h20.11c11.38,0,21-1.24,28.47-3.69a56.36,56.36,0,0,0,21.12-12.64A62.69,62.69,0,0,0,208.16,124c3.36-17.27.63-31.11-8.11-41.11s-22.26-14.93-40.42-14.93m-41.27,81.38h17.47q17.35,0,25.86-6.55t11.47-21.84q2.85-14.69-2.59-20.73t-21.81-6H129.08l-10.72,55.16m41.27-76q24.9,0,36.34,13.08T202.83,123a57.32,57.32,0,0,1-18,32.28,50.71,50.71,0,0,1-19.11,11.46q-10.51,3.44-26.79,3.42H114.32l-6.81,35H78.8L104.42,73.36h55.21"/></g><g id="g3492"><path id="path3494" d="M271.32,172.83a2.72,2.72,0,0,1-2.66-3.23L280,111.28c1.08-5.54.81-9.52-.75-11.2-.95-1-3.82-2.76-12.3-2.76H246.41l-14.24,73.31a2.72,2.72,0,0,1-2.67,2.2H201a2.72,2.72,0,0,1-2.09-1,2.68,2.68,0,0,1-.57-2.24L224,37.81a2.72,2.72,0,0,1,2.67-2.2h28.48a2.72,2.72,0,0,1,2.66,3.23L251.6,70.65h22.08c16.83,0,28.23,3,34.88,9.07s8.88,16.17,6.28,29.58l-11.92,61.33a2.71,2.71,0,0,1-2.66,2.2Z"/></g><g id="g3496"><path id="path3498" class="cls-5" d="M255.12,32.9H226.64a5.43,5.43,0,0,0-5.33,4.39L195.69,169.08a5.43,5.43,0,0,0,5.33,6.46H229.5a5.43,5.43,0,0,0,5.33-4.39L248.65,100h18.29c8.47,0,10.24,1.8,10.31,1.88.52.55,1.19,3.11.08,8.85L266,169.08a5.43,5.43,0,0,0,5.32,6.46h28.94a5.41,5.41,0,0,0,5.32-4.39l11.92-61.33c2.8-14.4.41-25.2-7.11-32.1-7.17-6.58-19.17-9.78-36.71-9.78H254.89l5.55-28.58a5.41,5.41,0,0,0-5.32-6.46m0,5.42-6.81,35h25.37q24,0,33,8.35t5.46,27.08l-11.92,61.32H271.32l11.33-58.31q1.94-9.94-1.42-13.57t-14.29-3.62H244.18l-14.68,75.5H201L226.64,38.32h28.48"/></g><g id="g3500"><path id="path3502" d="M359.91,146.6c10.91,0,19-2,24.2-6s8.62-10.73,10.47-20.22c1.72-8.86,1.07-15-1.95-18.4s-9.74-5.14-19.79-5.14H355.4l-9.66,49.73Zm-57,61.26a2.7,2.7,0,0,1-2.67-3.22l25.62-131.8a2.71,2.71,0,0,1,2.66-2.19h55.21c17.35,0,30.26,4.71,38.38,14s10.68,22.4,7.49,38.81a60,60,0,0,1-18.86,33.77,53.69,53.69,0,0,1-20.1,12c-7.24,2.36-16.53,3.56-27.63,3.56H340.64l-6.38,32.84a2.72,2.72,0,0,1-2.67,2.19Z"/></g><g id="g3504"><path id="path3506" class="cls-5" d="M357.64,99.58h15.2c12.13,0,16.35,2.67,17.78,4.25,2.38,2.64,2.82,8.19,1.3,16.07-1.72,8.82-4.9,15.07-9.46,18.58s-12.26,5.41-22.55,5.41H349Zm26.07-31.64H328.5a5.41,5.41,0,0,0-5.32,4.39L297.56,204.12a5.43,5.43,0,0,0,5.33,6.46h28.7a5.42,5.42,0,0,0,5.33-4.39l6-30.65H363c11.38,0,21-1.24,28.47-3.69a56.36,56.36,0,0,0,21.12-12.64A62.69,62.69,0,0,0,432.24,124c3.36-17.28.63-31.11-8.11-41.11s-22.25-14.93-40.42-14.93m-41.26,81.38h17.46q17.35,0,25.86-6.55t11.47-21.84q2.85-14.69-2.59-20.73t-21.81-6H353.17l-10.72,55.16m41.26-76q24.9,0,36.34,13.08T426.92,123a57.41,57.41,0,0,1-18,32.28,50.63,50.63,0,0,1-19.11,11.46q-10.51,3.44-26.79,3.42H338.4l-6.81,35h-28.7L328.5,73.36h55.21"/></g></g></g></g></svg>