<svg xmlns="http://www.w3.org/2000/svg" viewBox="0 0 500 486.42"><defs><style>.cls-1{fill:#01005b;}.cls-2{fill:#99f;}</style></defs><g id="レイヤー_2" data-name="レイヤー 2"><g id="レイヤー_1-2" data-name="レイヤー 1"><path class="cls-1" d="M411.16,0H88.84C42,0,0,37,0,85.14V401.28c0,48.1,42,85.14,88.84,85.14H411.16c46.86,0,88.84-37,88.84-85.14V85.14C500,37,458,0,411.16,0Z"/><path class="cls-2" d="M163.91,124.75c6.7,0,22.93-.06,34-.06,19.23,0,44.1,6.66,64.53,28.63,9.13,9.82,15,27,15,45.28,0,6.94.46,31.12-17.56,49.54-22.7,23.21-50.74,25.93-64.19,25.93H165V342.6a1,1,0,0,1-1.12.94H120a1,1,0,0,1-1.12-.94V124.75Z"/><path class="cls-1" d="M165.33,163.76V235H186.5c9.49,0,44.8-2.88,44.8-35.2,0-32.72-31.61-36-42.88-36Z"/><path class="cls-2" d="M305.86,343.21V208.64s-1.23-24.69-1.23-30.86h39.45s5,3.7,5,21c0,0,24.7-25.93,56.79-24.7v45.26s-37-3.28-53.08,15.24V343.21Z"/></g></g></svg>