<svg xmlns="http://www.w3.org/2000/svg" viewBox="0 0 500 487.6"><defs><style>.cls-1,.cls-4{fill:#2a0034;}.cls-1,.cls-2{fill-rule:evenodd;}.cls-2,.cls-3{fill:#ea77ff;}</style></defs><g id="レイヤー_2" data-name="レイヤー 2"><g id="レイヤー_1-2" data-name="レイヤー 1"><path class="cls-1" d="M20.81,20.81H479.19v446H20.81Z"/><path class="cls-2" d="M0,1V486.62a1,1,0,0,0,1,1H499a1,1,0,0,0,1-1V1a1,1,0,0,0-1-1H1A1,1,0,0,0,0,1ZM21.78,20.81H478.22a1,1,0,0,1,1,1v444a1,1,0,0,1-1,1H21.78a1,1,0,0,1-1-1v-444A1,1,0,0,1,21.78,20.81Z"/><path class="cls-3" d="M129.74,113.66v225.5a1,1,0,0,0,1,1h35a1,1,0,0,0,1-1V257.53H188c11.7,0,44.69-2.12,64.45-26.45,15.68-19.31,15.28-42.07,15.28-49.35,0-19.21-5.12-33.28-13.07-43.58-17.78-23-48-27.42-64.75-27.42-9.65,0-18.39.06-24.23.06l-34.05.92A2,2,0,0,0,129.74,113.66Z"/><path class="cls-4" d="M166.67,143.83v80.66h21.38c18.56,0,42.76-7.77,42.76-41.79,0-33-26.24-38.87-40.82-38.87Z"/><path class="cls-3" d="M299.81,198.25c0-2.91-.93-5.68-1-13.92a1,1,0,0,1,.6-.9c5.5-2.22,47.48-18.57,78.24-14.45a1,1,0,0,1,.84,1v31.27a1,1,0,0,1-.91,1c-6,.31-39.9,2.16-39.9,4.82V339.17a1,1,0,0,1-1,1h-35a1.93,1.93,0,0,1-1.93-1.94Z"/></g></g></svg>