<svg xmlns="http://www.w3.org/2000/svg" xmlns:xlink="http://www.w3.org/1999/xlink" viewBox="0 0 500.09 500"><defs><style>.cls-1{fill:#010204;}.cls-10,.cls-11,.cls-12,.cls-13,.cls-14,.cls-15,.cls-16,.cls-17,.cls-18,.cls-19,.cls-2,.cls-3,.cls-4,.cls-5,.cls-6,.cls-7,.cls-8,.cls-9{fill:none;stroke-miterlimit:10;}.cls-12,.cls-15,.cls-16,.cls-2,.cls-4,.cls-5,.cls-6,.cls-8{stroke:#346a9b;}.cls-19,.cls-2,.cls-3,.cls-6{opacity:0.8;}.cls-13,.cls-3{stroke:#ff0;}.cls-10,.cls-11,.cls-12,.cls-13,.cls-15,.cls-19,.cls-3,.cls-4,.cls-6,.cls-8,.cls-9{stroke-width:2px;}.cls-4{opacity:0.6;}.cls-5{opacity:0.4;}.cls-11,.cls-7{stroke:#faca2e;}.cls-9{stroke:#1a3650;}.cls-12,.cls-9{opacity:0.5;}.cls-10,.cls-14,.cls-18,.cls-19{stroke:#fff;}.cls-10,.cls-15,.cls-16{opacity:0.7;}.cls-17{stroke:#000;}.cls-17,.cls-18{stroke-width:0.5px;}.cls-20{opacity:0.9;fill:url(#名称未設定グラデーション_3);}.cls-21{fill:#fff;}</style><linearGradient id="名称未設定グラデーション_3" x1="250.09" y1="16.27" x2="250.09" y2="516.27" gradientUnits="userSpaceOnUse"><stop offset="0" stop-color="#e5e6e6"/><stop offset="1" stop-color="#8b8b8b"/></linearGradient></defs><g id="レイヤー_2" data-name="レイヤー 2"><g id="レイヤー_1-2" data-name="レイヤー 1"><circle class="cls-1" cx="250.09" cy="250" r="229.35"/><polyline class="cls-2" points="114.48 199.22 170.84 262.28 288.59 411.27 363.58 470.98"/><line class="cls-3" x1="26.03" y1="139.23" x2="115.04" y2="199.78"/><polyline class="cls-4" points="15.71 164.06 62.59 172.99 72.63 261.16 19.64 346.86"/><polyline class="cls-5" points="420.75 69.91 285.24 253.91 239.65 48.88 404.76 55.9"/><polyline class="cls-6" points="400.98 273.6 324.31 89.39 208.23 38.5 114.48 199.22"/><line class="cls-7" x1="396.85" y1="263.95" x2="376.76" y2="215.96"/><line class="cls-8" x1="484.84" y1="170.35" x2="405.08" y2="282.33"/><line class="cls-9" x1="329.01" y1="94.39" x2="368.62" y2="31.71"/><line class="cls-10" x1="328.37" y1="95.4" x2="329.01" y2="94.39"/><polyline class="cls-10" points="473.57 142.64 327.65 96.54 328.37 95.4"/><polyline class="cls-11" points="176.72 11.77 208.23 38.5 329.38 14.39"/><polyline class="cls-12" points="202.93 5.37 241.72 47.43 284.6 3.65"/><polyline class="cls-4" points="417.77 432.89 386.8 417.97 488.64 182.7"/><polyline class="cls-2" points="387.17 417.12 288.12 250 494.88 211.46"/><line class="cls-3" x1="139.04" y1="414.62" x2="82.72" y2="435.22"/><line class="cls-13" x1="138.87" y1="413.27" x2="138.99" y2="414.22"/><line class="cls-14" x1="112.75" y1="199.48" x2="138.87" y2="413.27"/><line class="cls-13" x1="112.7" y1="199.02" x2="112.72" y2="199.25"/><line class="cls-13" x1="112.65" y1="198.64" x2="112.7" y2="199.02"/><polyline class="cls-3" points="0.34 238.68 112.58 198.11 112.65 198.64"/><line class="cls-6" x1="329.9" y1="485.43" x2="285.51" y2="407.38"/><line class="cls-3" x1="82.95" y1="254.35" x2="14.4" y2="166.61"/><polyline class="cls-3" points="112.83 200.14 84.35 256.14 82.95 254.35"/><line class="cls-14" x1="83.24" y1="254.72" x2="44.17" y2="391.46"/><line class="cls-15" x1="138.29" y1="408.51" x2="83.94" y2="256.66"/><polyline class="cls-16" points="72.46 259.7 149.22 280.24 196.51 493.34"/><polyline class="cls-12" points="8.1 187.12 150.75 281.25 62.59 172.99 241.72 47.43"/><line class="cls-17" x1="4.8" y1="201.55" x2="72.19" y2="257.32"/><line class="cls-3" x1="82.5" y1="257.32" x2="0.34" y2="260.47"/><line class="cls-18" x1="84.17" y1="257.32" x2="169.23" y2="260.47"/><line class="cls-19" x1="171.16" y1="261.55" x2="139.04" y2="412.71"/><line class="cls-19" x1="139.04" y1="414.62" x2="288.38" y2="412.42"/><line class="cls-8" x1="290.03" y1="412.42" x2="404.14" y2="281.67"/><line class="cls-17" x1="71.45" y1="263.06" x2="59.45" y2="338"/><line class="cls-16" x1="385.83" y1="414.86" x2="202.56" y2="494.56"/><polyline class="cls-4" points="165.87 256.7 284.55 250.78 150.17 284.52 59.45 411.33"/><polyline class="cls-17" points="232.79 275.11 284.13 248.88 227.21 231.59"/><path class="cls-20" d="M250.09,0C112,0,.09,111.93.09,250S112,500,250.09,500s250-111.93,250-250S388.16,0,250.09,0Zm0,479.26C123.47,479.26,20.83,376.62,20.83,250S123.47,20.74,250.09,20.74,479.35,123.38,479.35,250,376.7,479.26,250.09,479.26Z"/><path class="cls-21" d="M161.92,212.05c2.23,1.12,36.83,5.58,36.83,5.58l-1.12,161.83C184.24,380.58,163,385,163,385v20.09H271.29V385c-2.23-2.23-35.71-5.58-35.71-5.58V190.85H161.92"/><path class="cls-21" d="M240,96v45.76h19c2.24-20.09,3.35-20.09,3.35-27.9,0-2.23,56.92-16.74,58,29,.43,17.66-11.16,42.41-55.81,46.87v23.44c0,3.35,58-7.81,58,40.18,0,9,2.23,42.41-58,46.87v25.67c0,3.35,91.52-4.46,91.52-71.43,0-60.27-53.57-56.92-45.76-59.15,30.22-8.63,42-37.35,41.3-60.27C349.42,63.62,240,87.05,240,96Z"/></g></g></svg>