<svg xmlns="http://www.w3.org/2000/svg" xmlns:xlink="http://www.w3.org/1999/xlink" viewBox="0 0 493.76 500"><defs><style>.cls-1{fill:url(#名称未設定グラデーション_16);}.cls-2{fill:#fff;}.cls-3{fill:url(#名称未設定グラデーション_19);}</style><linearGradient id="名称未設定グラデーション_16" y1="184.6" x2="365.89" y2="184.6" gradientUnits="userSpaceOnUse"><stop offset="0" stop-color="#4a87b8"/><stop offset="1" stop-color="#2e6b9a"/></linearGradient><linearGradient id="名称未設定グラデーション_19" x1="127.49" y1="313.83" x2="493.76" y2="313.83" gradientUnits="userSpaceOnUse"><stop offset="0" stop-color="#fbea74"/><stop offset="1" stop-color="#fcda4d"/></linearGradient></defs><g id="レイヤー_2" data-name="レイヤー 2"><g id="レイヤー_1-2" data-name="レイヤー 1"><path class="cls-1" d="M78,127H246.36V112.43H127.88V55.27c2.85-32.36,21.82-38.46,21.82-38.46C179.84-.86,246.36.18,246.36.18s80-4.15,102.9,27c0,0,13.62,11.53,16.63,36.37V185.19s-2.71,43.56-47.81,54.05l-5.2,1H178.8s-60.28,8.31-65.48,69.63v59.25H66.55S3.15,375.39,0,246.51C0,246.51-4.12,130.1,78,127Z"/><circle class="cls-2" cx="179.84" cy="58.91" r="21.83"/><path class="cls-3" d="M432,368.86H247v15.59H365.5l.39,52.26c-5.2,30.14-26.38,39.21-26.38,39.21-46.38,25.23-92.5,23.9-92.5,23.9s-58.85,4.45-100.82-31.18c0,0-15.69-10.49-18.7-35.34V311.7s2.7-43.56,47.81-54.05l5.19-1H314.57s60.28-8.31,65.48-69.63V127.73h53s53.39-7,60.67,114.62c0,0,.45,22.65-2.08,39.5C485.41,323.42,465.67,367.08,432,368.86Z"/><circle class="cls-2" cx="313.92" cy="437.23" r="21.83"/></g></g></svg>