<svg xmlns="http://www.w3.org/2000/svg" xmlns:xlink="http://www.w3.org/1999/xlink" viewBox="0 0 500 385.57"><defs><style>.cls-1,.cls-2{fill-rule:evenodd;}.cls-1{fill:url(#名称未設定グラデーション_4);}.cls-2{fill:url(#名称未設定グラデーション_2);}</style><linearGradient id="名称未設定グラデーション_4" x1="-1357.12" y1="-4695.81" x2="-1356.42" y2="-4696.5" gradientTransform="matrix(721.09, 0, 0, -482.94, 978608.64, -2267779.74)" gradientUnits="userSpaceOnUse"><stop offset="0" stop-color="#cbced0"/><stop offset="1" stop-color="#84838b"/></linearGradient><linearGradient id="名称未設定グラデーション_2" x1="-1355.86" y1="-4698" x2="-1355.17" y2="-4698.69" gradientTransform="matrix(398, 0, 0, -406.12, 539821, -1907847.01)" gradientUnits="userSpaceOnUse"><stop offset="0" stop-color="#276dc3"/><stop offset="1" stop-color="#165caa"/></linearGradient></defs><g id="レイヤー_2" data-name="レイヤー 2"><g id="レイヤー_1-2" data-name="レイヤー 1"><path class="cls-1" d="M250,334.86c-138.07,0-250-75-250-167.43S111.93,0,250,0,500,75,500,167.43,388.07,334.86,250,334.86Zm38.27-269.4c-104.95,0-190,51.25-190,114.46s85.07,114.47,190,114.47,182.39-35,182.39-114.47S393.21,65.46,288.27,65.46Z"/><path class="cls-2" d="M380.74,259.33s15.13,4.56,23.92,9A46.42,46.42,0,0,1,416.79,277a32.81,32.81,0,0,1,5.55,8L482,385.53l-96.38,0-45.07-84.64s-9.23-15.86-14.91-20.45c-4.74-3.84-6.75-5.2-11.44-5.2h-22.9l0,110.23-85.29,0V104H377.27s78,1.4,78,75.62S380.74,259.33,380.74,259.33ZM343.64,165,292,165l0,47.88,51.66,0s23.92-.07,23.92-24.35C367.56,163.75,343.64,165,343.64,165Z"/></g></g></svg>