<svg xmlns="http://www.w3.org/2000/svg" viewBox="0 0 500 484.07"><defs><style>.cls-1{fill:#cd2027;}.cls-2{fill:#fff;}</style></defs><g id="レイヤー_2" data-name="レイヤー 2"><g id="レイヤー_1-2" data-name="レイヤー 1"><path class="cls-1" d="M15.61,306.34H189.66c-36.4-207.71,140.39-302.55,302-175.86l8.34-5.92C198.79-145.68,26.56,191.2,15.61,306.34Z"/><path class="cls-1" d="M196.51,262.52s.76,24.28,2.28,27.31l25.79,9.11s-6.07-27.32-4.55-28.08Z"/><path class="cls-1" d="M199.54,206.37,217,220s2.27-22,5.31-25.8l-16.7-12.14Z"/><path class="cls-1" d="M242,151s9.87-12.9,12.9-15.94c0,0-3.29-2.91-9.86-14.41,0,0-12.14,11.38-13.66,14.41C231.41,135.05,241.27,150.23,242,151Z"/><path class="cls-1" d="M286,94.08l19.73-6.83,4.55,14.42c-3.79.76-19,7.59-19,7.59Z"/><path class="cls-1" d="M357.36,81.94s-.76,1.52-.76,13.66c0,0,15.18,0,21.25,3L378.6,85A212.08,212.08,0,0,0,357.36,81.94Z"/><path class="cls-1" d="M357.36,12.9l-.76,14.41s18.21,5.32,21.25,7.59l.75-14.41A147.52,147.52,0,0,0,357.36,12.9Z"/><path class="cls-1" d="M273.9,0l3.79,12.9s-19.72.76-21.24.76L252.66.76Z"/><polygon class="cls-1" points="159.33 31.11 176.78 21.24 186.65 36.42 169.2 46.28 159.33 31.11"/><polygon class="cls-1" points="88.01 88.01 103.19 101.67 88.01 119.12 71.32 104.7 88.01 88.01"/><polygon class="cls-1" points="11.38 191.2 36.42 200.3 25.8 226.1 0 217 11.38 191.2"/><path class="cls-1" d="M0,351.29V484.07H35.66V452.2h.76l30.35,31.87h53.11L78.15,442.34v-.76c-6.83.76,32.62,1.52,32.62-44,0-31.11-21.24-42.49-37.17-46.28Z"/><path class="cls-2" d="M36.42,384.67v29.59H65.25c1.12-.9,6.83-3.79,6.83-14.41s-5-13.7-6.83-15.18Z"/><path class="cls-1" d="M128.22,383.16V484.07h36.42V460.55H198v23.52h35.66V382.4c-3-19-15.18-27.32-31.87-30.35H158.57A35.45,35.45,0,0,0,128.22,383.16Z"/><path class="cls-2" d="M164.64,390v33.39H198V390c-2.28-5.31-6.07-6.06-9.11-6.06H171.47C167.68,384.67,164.64,387,164.64,390Z"/><rect class="cls-1" x="250.38" y="352.05" width="37.94" height="132.02"/><polygon class="cls-1" points="303.49 352.05 341.43 352.05 341.43 449.92 392.26 449.92 392.26 484.07 303.49 484.07 303.49 352.05"/><path class="cls-1" d="M495.45,386.19V352.05H434c-8.35.76-28.83,8.34-31.87,31.11v19.72c3,19,16.7,28.08,30.35,30.35h33.39v16.69H404.4v34.15h63c9.11-1.52,30.35-8.35,31.87-31.87V432.47c-1.52-19-16.69-29.59-32.62-31.1H434.75V386.19Z"/></g></g></svg>