<svg xmlns="http://www.w3.org/2000/svg" viewBox="0 0 500 444.14"><defs><style>.cls-1{fill:#61dafb;}</style></defs><g id="レイヤー_2" data-name="レイヤー 2"><g id="レイヤー_1-2" data-name="レイヤー 1"><path class="cls-1" d="M500,221.33c0-32.78-42.55-63.45-106.1-82.52,14.43-64.65,8.29-117-20-133.35S298.1,10.4,250,55.48C201.92,10.31,154.32-10.79,125.94,5.6s-34.7,68.55-20.32,133.1C42.24,157.77,0,188.49,0,221.33s42.05,64.36,105.19,84.17C90,370,95.43,422,123.9,438.48s77.19-4.42,126.13-49.61C299,434,347.57,455,375.94,438.61s33.68-68.61,18.4-133.22C457.65,285.57,500,254,500,221.33ZM363.55,25.93c17,9.82,21,52,9,107.1A496.93,496.93,0,0,0,308,122,495.09,495.09,0,0,0,266.3,71.67C308,33.72,346.54,16.12,363.55,25.93Zm-42.8,238.26c-7.77,13.45-16,26.22-24.5,38.24-15.13,1.44-30.81,2.23-46.89,2.23-15.63,0-30.9-.74-45.64-2.11-8.77-12.34-17.26-25.47-25.27-39.33-7.77-13.47-14.72-27-20.89-40.38,6.2-13.49,13.21-27.13,21.05-40.71,8-13.93,16.57-27.11,25.39-39.49,14.65-1.36,29.82-2.1,45.36-2.1,16,0,31.57.78,46.62,2.21,8.54,12.07,16.8,24.89,24.61,38.41,8,13.91,15.18,27.88,21.49,41.69C335.81,236.55,328.71,250.39,320.75,264.19Zm32.55-14.71c5.39,14,9.92,27.63,13.59,40.77-13.19,3.37-27.26,6.28-42,8.58q7.51-11.58,14.61-23.83Q346.82,262.29,353.3,249.48ZM250.07,358.17c-9.68-9.88-19.4-20.79-28.94-32.63q13.94.73,28.23.75,15,0,29.54-.82C269.41,337.33,259.72,348.26,250.07,358.17Zm-75-59.14c-15-2.3-29.2-5.22-42.55-8.61,3.73-13.24,8.31-27,13.79-41.08q6.3,12.37,13.39,24.69Q167.15,286.89,175.09,299Zm-28.8-102.72c-5.54-14.21-10.18-28.11-13.94-41.48,13.48-3.43,27.86-6.37,43-8.68q-7.94,12.22-15.43,25.16Q152.68,183.78,146.29,196.31Zm103.78-109c9.55,9.82,19.12,20.62,28.52,32.34q-14.43-.75-29.23-.77c-9.41,0-18.73.25-27.91.71C230.88,107.91,240.5,97.12,250.07,87.34Zm89.25,83q-7.12-12.33-14.68-24c14.92,2.32,29.13,5.26,42.44,8.67-3.71,13.26-8.28,27.06-13.74,41.16Q346.74,183.24,339.32,170.34ZM135.65,25c17.13-9.89,56.14,8.06,98.18,46.59A496.68,496.68,0,0,0,192,121.87,491.61,491.61,0,0,0,126.84,133C114.57,77.44,118.56,34.83,135.65,25ZM21.63,222.6c0-19.8,35.11-44.64,89.61-61.78a477.27,477.27,0,0,0,22.43,61.85,493.49,493.49,0,0,0-22.84,61.59C56.57,267.12,21.63,242.35,21.63,222.6ZM135.81,420.38c-17.17-9.91-21.11-52.83-8.66-108.68a477.84,477.84,0,0,0,64.67,11.47,480.76,480.76,0,0,0,42.46,50.35C192.13,412.25,153,430.29,135.81,420.38Zm227.58-1c-17,9.84-55.74-7.87-97.53-46A478.46,478.46,0,0,0,308.18,323a482.24,482.24,0,0,0,64.06-11.43C384.46,367,380.47,409.55,363.39,419.41ZM388.67,284A497.94,497.94,0,0,0,366,222.66a482.2,482.2,0,0,0,22.29-61.6c54.05,17.13,88.84,41.84,88.84,61.54S442.49,266.89,388.67,284Z"/><circle class="cls-1" cx="250" cy="222.6" r="47.07"/></g></g></svg>