<svg xmlns="http://www.w3.org/2000/svg" xmlns:xlink="http://www.w3.org/1999/xlink" viewBox="0 0 500 498.61"><defs><style>.cls-1,.cls-10,.cls-11,.cls-12,.cls-13,.cls-14,.cls-15,.cls-16,.cls-17,.cls-18,.cls-2,.cls-3,.cls-4,.cls-5,.cls-6,.cls-7,.cls-8,.cls-9{fill-rule:evenodd;}.cls-1{fill:url(#Linear_Gradient_1);}.cls-2{fill:url(#Linear_Gradient_2);}.cls-3{fill:url(#Linear_Gradient_2-2);}.cls-4{fill:url(#Linear_Gradient_3);}.cls-5{fill:url(#Linear_Gradient_4);}.cls-6{fill:url(#Linear_Gradient_5);}.cls-7{fill:url(#Linear_Gradient_6);}.cls-8{fill:url(#Linear_Gradient_7);}.cls-9{fill:#fff;}.cls-10{fill:url(#Linear_Gradient_8);}.cls-11{fill:url(#Linear_Gradient_9);}.cls-12{fill:url(#Linear_Gradient_10);}.cls-13{fill:url(#Linear_Gradient_11);}.cls-14{fill:#ab3628;}.cls-15{fill:url(#Radial_Gradient_1);}.cls-16{fill:url(#Radial_Gradient_2);}.cls-17{fill:url(#Linear_Gradient_12);}.cls-18{fill:url(#Linear_Gradient_13);}</style><linearGradient id="Linear_Gradient_1" x1="439.28" y1="543.95" x2="333.8" y2="357.71" gradientUnits="userSpaceOnUse"><stop offset="0" stop-color="#f1926b"/><stop offset="0.41" stop-color="#db4c34"/><stop offset="0.99" stop-color="#a72126"/><stop offset="1" stop-color="#a72126"/></linearGradient><linearGradient id="Linear_Gradient_2" x1="491.83" y1="387.51" x2="355.89" y2="296.29" gradientUnits="userSpaceOnUse"><stop offset="0" stop-color="#9a3729"/><stop offset="0.99" stop-color="#a2372a"/><stop offset="1" stop-color="#a2372a"/></linearGradient><linearGradient id="Linear_Gradient_2-2" x1="383.07" y1="549.6" x2="247.12" y2="458.37" xlink:href="#Linear_Gradient_2"/><linearGradient id="Linear_Gradient_3" x1="97.65" y1="321.48" x2="118.73" y2="458.45" gradientUnits="userSpaceOnUse"><stop offset="0" stop-color="#fff"/><stop offset="0.23" stop-color="#e38e69"/><stop offset="0.46" stop-color="#d95d36"/><stop offset="0.99" stop-color="#a60003"/><stop offset="1" stop-color="#a60003"/></linearGradient><linearGradient id="Linear_Gradient_4" x1="242.6" y1="193.59" x2="250.37" y2="333.37" gradientUnits="userSpaceOnUse"><stop offset="0" stop-color="#fff"/><stop offset="0.23" stop-color="#e18d65"/><stop offset="0.56" stop-color="#c23d28"/><stop offset="0.99" stop-color="#b22b23"/><stop offset="1" stop-color="#b22b23"/></linearGradient><linearGradient id="Linear_Gradient_5" x1="371.23" y1="64.41" x2="394.48" y2="164.59" gradientUnits="userSpaceOnUse"><stop offset="0" stop-color="#fff"/><stop offset="0.18" stop-color="#e08159"/><stop offset="0.4" stop-color="#c94729"/><stop offset="0.99" stop-color="#b22b23"/><stop offset="1" stop-color="#b22b23"/></linearGradient><linearGradient id="Linear_Gradient_6" x1="300.25" y1="29.13" x2="400.42" y2="-20.96" gradientUnits="userSpaceOnUse"><stop offset="0" stop-color="#fff"/><stop offset="0.54" stop-color="#c8422a"/><stop offset="0.99" stop-color="#c12121"/><stop offset="1" stop-color="#c12121"/></linearGradient><linearGradient id="Linear_Gradient_7" x1="9.85" y1="286.57" x2="18.1" y2="369.11" gradientUnits="userSpaceOnUse"><stop offset="0" stop-color="#fff"/><stop offset="0.31" stop-color="#d9613a"/><stop offset="0.99" stop-color="#c23d25"/><stop offset="1" stop-color="#c23d25"/></linearGradient><linearGradient id="Linear_Gradient_8" x1="-46.84" y1="391.43" x2="340.72" y2="-7.09" gradientUnits="userSpaceOnUse"><stop offset="0" stop-color="#bd0012"/><stop offset="0.07" stop-color="#fff"/><stop offset="0.17" stop-color="#fff"/><stop offset="0.27" stop-color="#c95233"/><stop offset="0.33" stop-color="#962e29"/><stop offset="0.46" stop-color="#af3b24"/><stop offset="0.72" stop-color="#b93521"/><stop offset="0.99" stop-color="#dc4719"/><stop offset="1" stop-color="#dc4719"/></linearGradient><linearGradient id="Linear_Gradient_9" x1="250.03" y1="431.62" x2="133.3" y2="402.81" gradientUnits="userSpaceOnUse"><stop offset="0" stop-color="#9e2d28"/><stop offset="0.54" stop-color="#a72c26"/><stop offset="0.99" stop-color="#b22a2d"/><stop offset="1" stop-color="#b22a2d"/></linearGradient><linearGradient id="Linear_Gradient_10" x1="450.53" y1="291.51" x2="346.82" y2="198.56" gradientUnits="userSpaceOnUse"><stop offset="0" stop-color="#94362e"/><stop offset="0.99" stop-color="#ab2c25"/><stop offset="1" stop-color="#ab2c25"/></linearGradient><linearGradient id="Linear_Gradient_11" x1="488.63" y1="120.97" x2="436.97" y2="65.75" gradientUnits="userSpaceOnUse"><stop offset="0" stop-color="#90382e"/><stop offset="0.99" stop-color="#ab362b"/><stop offset="1" stop-color="#ab362b"/></linearGradient><radialGradient id="Radial_Gradient_1" cx="362.97" cy="200.35" r="127.09" gradientUnits="userSpaceOnUse"><stop offset="0" stop-color="#b22b23"/><stop offset="0.99" stop-color="#94312b"/><stop offset="1" stop-color="#94312b"/></radialGradient><radialGradient id="Radial_Gradient_2" cx="186.97" cy="367.81" r="168.95" gradientUnits="userSpaceOnUse"><stop offset="0" stop-color="#af2b24"/><stop offset="0.99" stop-color="#96322c"/><stop offset="1" stop-color="#96322c"/></radialGradient><linearGradient id="Linear_Gradient_12" x1="67.31" y1="498" x2="25.21" y2="355.18" gradientUnits="userSpaceOnUse"><stop offset="0" stop-color="#9f4530"/><stop offset="0.43" stop-color="#ab312b"/><stop offset="0.99" stop-color="#b9302a"/><stop offset="1" stop-color="#b9302a"/></linearGradient><linearGradient id="Linear_Gradient_13" x1="390.26" y1="24.73" x2="484.64" y2="66.39" gradientUnits="userSpaceOnUse"><stop offset="0" stop-color="#b93021"/><stop offset="0.44" stop-color="#a2322a"/><stop offset="0.99" stop-color="#904131"/><stop offset="1" stop-color="#904131"/></linearGradient></defs><g id="レイヤー_2" data-name="レイヤー 2"><g id="レイヤー_1-2" data-name="レイヤー 1"><polygon class="cls-1" points="101.9 498.61 471.53 473.53 500 100.82 387.37 329.1 101.9 498.61"/><polygon class="cls-2" points="353.83 368.27 472.14 473.27 440.37 254 353.83 368.27"/><polygon class="cls-3" points="103.14 498.13 472.57 473.27 239.82 455 103.14 498.13"/><polygon class="cls-4" points="33.66 335.06 103.47 498.18 161.61 307.7 33.66 335.06"/><polygon class="cls-5" points="147.2 302.86 353.81 368.9 300.31 159.34 147.2 302.86"/><polygon class="cls-6" points="302.83 174.38 487.86 162.29 343.13 44.09 302.83 174.38"/><polygon class="cls-7" points="281.36 1.31 420.18 1.94 335.06 48.98 281.36 1.31"/><polygon class="cls-8" points="6.81 256.45 0 398.95 35.66 333.92 6.81 256.45"/><path class="cls-9" d="M4.9,254l29,82.32L160,308l144-133.8L344.62,45.17,280.65,0,171.88,40.71C137.61,72.58,71.11,135.64,68.72,136.83S24.81,216.55,4.9,254Z"/><path class="cls-10" d="M106.8,106.12C181.07,32.48,276.81-11,313.56,26s-2.22,127.17-76.49,200.78S68.24,346.34,31.52,309.27,32.53,179.73,106.8,106.12Z"/><path class="cls-11" d="M103.47,498.11,161.16,307l191.59,61.55C283.48,433.53,206.43,488.44,103.47,498.11Z"/><path class="cls-12" d="M304.24,173.85l49.19,194.82c57.87-60.84,109.8-126.25,135.24-207.16Z"/><path class="cls-13" d="M488.16,162.49C507.85,103.09,512.39,17.87,419.57,2L343.41,44.11Z"/><path class="cls-14" d="M0,398.1c2.73,98,73.46,99.5,103.59,100.36L34,335.92Z"/><path class="cls-15" d="M304.52,174.15c44.47,27.33,134.08,82.22,135.9,83.23C443.24,259,479.05,197,487.18,162Z"/><path class="cls-16" d="M161.08,307,238.2,455.81c45.6-24.73,81.31-54.86,114-87.14Z"/><path class="cls-17" d="M33.69,336.12,22.76,466.23c20.62,28.17,49,30.62,78.74,28.42C80,441.07,37,334,33.69,336.12Z"/><path class="cls-18" d="M343,44.44l153.2,21.5c-8.17-34.65-33.28-57-76.08-64Z"/></g></g></svg>