<svg xmlns="http://www.w3.org/2000/svg" viewBox="0 0 500 486.42"><defs><style>.cls-1{fill:#00005b;}.cls-2{fill:#99f;}</style></defs><g id="レイヤー_2" data-name="レイヤー 2"><g id="レイヤー_1-2" data-name="レイヤー 1"><path class="cls-1" d="M411.16,0H88.84C42,0,0,37,0,85.14V401.28c0,48.1,42,85.14,88.84,85.14H411.16c46.86,0,88.84-37,88.84-85.14V85.14C500,37,458,0,411.16,0Z"/><path class="cls-2" d="M84,124.69V342h45.68V263H158l49.39,79h54.32v-1.24l-60.5-90.12v-1.24s42-13.58,42-58c0-51.85-46.91-66.67-75.31-66.67Z"/><path class="cls-1" d="M129.63,164.2v59.26H158c14.82,0,38.28-4.94,38.28-30.87,0-23.45-22.23-28.39-38.28-28.39Z"/><path class="cls-2" d="M421,343.46l-1.24-16V178H375.33s0,111.12,0,118.52c0,5.93-54.34,29.39-55.56-17.28V178H275.31V285.64c0,73.62,72.84,72.38,102.49,45.47,0,0,1.23,12.35,4.93,12.35Z"/></g></g></svg>