<svg xmlns="http://www.w3.org/2000/svg" viewBox="0 0 500 374.6"><defs><style>.cls-1{fill:#cd6799;}.cls-2{fill:#fff;}</style></defs><g id="レイヤー_2" data-name="レイヤー 2"><g id="レイヤー_1-2" data-name="レイヤー 1"><path class="cls-1" d="M119.48,138.45c26.26,32.09,90.13,10.7,113-2.08,52.1-29.18,67.42-74.11,48.77-91.7C252,17.16,182.83,32.17,142.41,52.59c-2.5,1.26-101.28,44.18-104.62,100-1.59,26.71,15,40.88,33.76,56.68,18.34,15.42,27.51,19.18,44.6,37.51l50.43-27.5c14.17-20.84,36.26-31.26,46.26-29.6,19.48,3.25,12.12,31.88,12.92,31.68,1.67-.42,2.09-2.5,5.84-2.92a11.86,11.86,0,0,1,9.17,3.34c1.25,1.25,2.44,3.31,1.25,7.5-10.42,36.68-15,54.18-12.09,62.93,1.24,3.73,35.85-71.27,48.35-103.78.77-2,2-7.41,3.33-12.5,1.25-4.58,17.93-5.42,23.34-5,2.53.19,7.92,2.5,7.92,5,0,2.08-5.83,11.22-6.67,25.42-.41,7.09-.41,17.93,8.34,32.51.91,1.52,29.59-50.43,30.84-58.35.64-4,2.6-13.25,5-16.25,1.67-2.09,15.42-3.75,21.68-3.34,3,.21,7.92,2.51,8.33,5,.16.92-5.15,13.35-5.83,20.84-1.67,18.33,1.66,27.92,10.83,43.76,0,0,68.64-32.41,106.7,18.34,3.75,5,9.49,16.29,7.5,31.67-1.66,12.92-16.67,26.26-25.84,25.84-1.25-.05-1.66-.83-1.66-2.5,0-2.08,20.25-9.2,17.5-28.76-3.33-23.75-27.54-31.59-30.84-32.92-17.51-7.09-48.35-7.5-67.94.83,0,0,4.17,10.84,3.75,20.84-.43,10.41-6.64,18.36-11.25,22.51-4.17,3.75-16.21,14.88-34.59,17.5-5.84.84-14.15-4.5-12.09-16.67,4.17-24.59,25-40,28.76-43.76a117.62,117.62,0,0,1-13.34-40s-13.75,26.25-30.42,51.26c0,0,6.66,11.67,5.83,25.43-1.24,20.4-17.92,31.67-35.43,37.51-7.66,2.55-23.75,4.16-27.92-1.25-2-2.58-1.48-6.17-.84-7.92,2.92-7.92,19.59-23.76,36.68-47.1,0,0-10.83-15.84-15.42-43.35,0,0-20,50.85-44.6,92.95-3,5.16-10.75,14-15.83,15.42-12.09,3.33-16.26-8.34-17.09-16.67s.42-22.51.42-22.51c-7.92,17.92-16.68,43.75-28.76,46.26-10,2.09-17.93-1.25-24.18-15-12.48-27.46-5-56.68-.41-70l-28.35,16.25c7.51,12.93,7.79,37.48,4.59,50.85-13.75,57.52-71.81,72.78-99.61,59.6-7.92-3.75-22.36-25.56-7.51-55.85,10.84-22.09,53.35-46.26,75-57.51,0,0-22.06-15.92-42.1-30.43C12.37,194.72,2.38,171.5.28,156.79c-1.67-11.67,4.51-26.74,7.09-31.68C27.37,86.77,66.67,46,165.75,9.66,207.84-5.76,293.34-7.19,311.21,39.25c14.58,37.93-12.67,92.18-66.27,117.54-38.77,18.34-111.29,27.09-128.79-12.51C114.33,140.18,117.62,136.17,119.48,138.45Z"/><path class="cls-2" d="M110.31,267.24a64,64,0,0,1,.84,32.09c-5.06,20.73-23.34,42.51-47.1,47.1C55,348.18,47.8,344.76,47.38,336c-.8-16.7,9.17-32.93,33.76-50C89.86,279.93,94.48,276,110.31,267.24Z"/><path class="cls-2" d="M212.43,218.47c-2.5,12.09-13.34,46.68-26.68,72.94-1.12,2.2-3.89,7.75-6.79,7.44s-4.3-5.78-4.88-7.86c-6.59-23.76,7.5-60,23.76-75.85a22.78,22.78,0,0,1,10-5.84C216.58,207.56,212.66,217.37,212.43,218.47Z"/><path class="cls-2" d="M282,298.5a255.64,255.64,0,0,0,24.17-28.35c1.67.84-.83,8.76-2.5,12.09-2.67,5.34-11.18,13.3-18.75,17.09C283.28,300.16,281.1,299.43,282,298.5Z"/><path class="cls-2" d="M372.89,248.06c-.49-1.22-14.59,12.09-19.59,30.85-.3,1.12-.45,3.32.42,3.75s9.22-3.05,13.34-7.5c2-2.18,5.83-6.67,6.66-15.43C374,256.86,373.72,250.15,372.89,248.06Z"/></g></g></svg>