<svg xmlns="http://www.w3.org/2000/svg" xmlns:xlink="http://www.w3.org/1999/xlink" viewBox="0 0 307.69 500"><defs><style>.cls-1{fill:url(#名称未設定グラデーション_8);}.cls-2{fill:url(#名称未設定グラデーション_8-2);}.cls-3{fill:url(#名称未設定グラデーション_7);}.cls-4{fill:url(#名称未設定グラデーション_7-2);}.cls-5{fill:url(#名称未設定グラデーション_7-3);}</style><linearGradient id="名称未設定グラデーション_8" x1="-1454.21" y1="-5930.11" x2="-1454.01" y2="-5930.11" gradientTransform="translate(2236571.46 3420519.14) scale(1538 576.75)" gradientUnits="userSpaceOnUse"><stop offset="0" stop-color="#4f4f4f"/><stop offset="1"/></linearGradient><linearGradient id="名称未設定グラデーション_8-2" x1="-1454.21" y1="-5929.05" x2="-1454.01" y2="-5929.05" gradientTransform="translate(2236571.46 3419750.14) scale(1538 576.75)" xlink:href="#名称未設定グラデーション_8"/><linearGradient id="名称未設定グラデーション_7" x1="-1454.21" y1="-5933.75" x2="-1454.01" y2="-5933.75" gradientTransform="translate(2236571.46 5704070.99) scale(1538 961.25)" gradientUnits="userSpaceOnUse"><stop offset="0" stop-color="#c40000"/><stop offset="1" stop-color="red"/></linearGradient><linearGradient id="名称未設定グラデーション_7-2" x1="-1454.21" y1="-5933.11" x2="-1454.01" y2="-5933.11" gradientTransform="translate(2236571.46 5703301.99) scale(1538 961.25)" xlink:href="#名称未設定グラデーション_7"/><linearGradient id="名称未設定グラデーション_7-3" x1="-1454.21" y1="-5934.39" x2="-1454.01" y2="-5934.39" gradientTransform="translate(2236571.46 5704839.99) scale(1538 961.25)" xlink:href="#名称未設定グラデーション_7"/></defs><g id="レイヤー_2" data-name="レイヤー 2"><g id="レイヤー_1-2" data-name="レイヤー 1"><path class="cls-1" d="M0,307.69v38.46c0,6.49,139.88,17.35,231,38.47,44-10.21,76.68-22.8,76.68-38.47V307.69c0-15.65-32.66-28.25-76.68-38.46-91.14,21.12-231,32-231,38.46"/><path class="cls-2" d="M0,153.85v38.46c0,6.48,139.88,17.34,231,38.46,44-10.21,76.68-22.8,76.68-38.46V153.85c0-15.66-32.66-28.26-76.68-38.47-91.14,21.13-231,32-231,38.47"/><path class="cls-3" d="M0,230.77V346.15c0-9.61,307.69-28.84,307.69-76.92V153.85C307.69,201.92,0,221.15,0,230.77"/><path class="cls-4" d="M0,76.92V192.31c0-9.62,307.69-28.85,307.69-76.93V0C307.69,48.08,0,67.31,0,76.92"/><path class="cls-5" d="M0,384.62V500c0-9.62,307.69-28.85,307.69-76.92V307.69C307.69,355.77,0,375,0,384.62"/></g></g></svg>