<svg xmlns="http://www.w3.org/2000/svg" xmlns:xlink="http://www.w3.org/1999/xlink" viewBox="0 0 500 448.1"><defs><style>.cls-1{fill:url(#名称未設定グラデーション_9);}</style><linearGradient id="名称未設定グラデーション_9" x1="250" y1="448.1" x2="250" gradientUnits="userSpaceOnUse"><stop offset="0" stop-color="#fd2521"/><stop offset="1" stop-color="#f88333"/></linearGradient></defs><g id="レイヤー_2" data-name="レイヤー 2"><g id="レイヤー_1-2" data-name="レイヤー 1"><path class="cls-1" d="M49.73,66.43C48,64.71,159.39,226.69,285.91,323.17c2.81,2.14-125.47,82.76-285.73-34.8-4.52-3.31,76.16,125.71,218.25,152.36,67.48,12.65,108.6,2.11,162.37-25.31,72.68-37.05,108.6,16.87,113.87,31.63.11.31,2,2.48,2.64-.52,15.29-70.12-39.53-129.16-39-130.74C499.94,187.68,394.51,46.4,308.05,0,306-1.11,400.83,109.66,355,240.93c-.89,2.54-165-112.29-245.14-200.86C105.71,35.51,210,179.25,253.22,220.37,256.47,223.45,122.48,137.07,49.73,66.43Z"/></g></g></svg>