<svg xmlns="http://www.w3.org/2000/svg" viewBox="0 0 500 500"><defs><style>.cls-1{fill:#1da1f2;}.cls-2{fill:#fff;}</style></defs><g id="レイヤー_2" data-name="レイヤー 2"><g id="レイヤー_1-2" data-name="レイヤー 1"><rect class="cls-1" width="500" height="500"/><path class="cls-2" d="M252.93,202.15c-10.74-85,82-104.49,118.16-62.5,1.81,2.09,40-13.67,43-15.63s-11.31,28.12-29.29,37.11c-2,1,32.22-6.83,39.06-10.74,3.43-2-28.32,35.16-34.18,35.16,0,0,7.62,58.14-40,128.9-32.23,47.85-88.14,66.39-115.23,72.27C153.32,404.3,82,359.38,90.82,360.35c50.7,5.64,104.49-29.3,99.61-29.3-45.9,0-66.41-46.87-63.48-46.87,9.82,0,37.45-1.55,29.3-2.93-51.76-8.79-57.62-68.36-53.71-66.41,4.7,2.36,35,10.78,29.3,6.84C84,188.48,108.4,126,112.3,130.86,169.09,201.84,253.17,204.09,252.93,202.15Z"/></g></g></svg>