<svg xmlns="http://www.w3.org/2000/svg" viewBox="0 0 500 500"><defs><style>.cls-1{fill:#3178c6;}.cls-2{fill:#fff;}</style></defs><g id="レイヤー_2" data-name="レイヤー 2"><g id="レイヤー_1-2" data-name="レイヤー 1"><path class="cls-1" d="M453.3,0H46.7C22.08,0,0,22,0,47.82V452.18C0,478,22.08,500,46.7,500H453.3c24.62,0,46.7-22,46.7-47.82V47.82C500,22,477.92,0,453.3,0Z"/><path class="cls-2" d="M427.73,276a169.44,169.44,0,0,0-18.06-3.92c-5.7-.56-5.67-1.06-12.05-.89-12.41.33-14.62,1.44-21.46,3.37-2.33.65-15.67,6.9-15.67,18,0,12.05,9.25,17.17,12.55,19.93,1.13,1,15.21,8,25.59,12.61,15,6.59,27,12.25,36,19.2s15.41,14.58,19.23,22.89,5.28,15.92,5.28,27.23c0,20.07-6,31.95-18.79,44.48s-35.29,19.21-64.85,19.91c-11.29.27-28.92-.37-39.92-3.3s-13.08-2.71-26.09-8.16V397.91c2.85,1.72,4,5,21.92,13.66,8.32,4,28.61,8.82,38.61,8.82,16.89,0,35-6.4,36.37-17.81,1.24-10.64-1.33-15.1-5.87-19.51-10.06-9.8-19.63-12.77-26-15.68-5.89-2.7-12-4.79-22.09-9.66-12.51-6.3-20.93-10.34-29.68-20.94s-14.24-22.46-14.24-37.8c0-10.88.7-20.24,6.52-30.27a62.43,62.43,0,0,1,25.25-24.61c11.76-6.37,20.52-9,37.07-10.67,5.63-.56,16.67-1,23-1,8,0,22.35,1.53,22.35,1.53,6.62,1.1,19.86,4.41,26.92,8.24v44.68S439.29,279.26,427.73,276Z"/><polygon class="cls-2" points="115.89 237.3 115.89 277.61 177.7 277.61 177.7 455.95 227.22 455.95 227.22 277.61 290.84 277.61 290.84 237.3 115.89 237.3"/></g></g></svg>