<svg xmlns="http://www.w3.org/2000/svg" viewBox="0 0 500 500"><defs><style>.cls-1{fill:#fff;}</style></defs><g id="レイヤー_2" data-name="レイヤー 2"><g id="レイヤー_1-2" data-name="レイヤー 1"><path d="M500,198.66,444.2,0,241.07,53.57l-29,51.34H147.32L0,250,149.55,395.09h62.5l29,51.34L444.2,500,500,303.57,468.75,250Zm-283.48-87L372.77,73.66,281.25,225.45H102.68Zm0,276.78L102.68,274.55h180.8l89.29,151.79Zm198.66,11.16L325.89,250,415.18,98.21l42.41,154Z"/><polygon class="cls-1" points="372.77 73.66 216.52 111.61 102.68 225.45 281.25 225.45 372.77 73.66"/><polygon class="cls-1" points="325.89 250 415.18 399.55 457.59 252.23 415.18 98.21 325.89 250"/><polygon class="cls-1" points="102.68 274.55 216.52 388.39 372.77 426.34 283.48 274.55 102.68 274.55"/></g></g></svg>