<svg xmlns="http://www.w3.org/2000/svg" viewBox="0 0 500 465.36"><defs><style>.cls-1{fill:#1c64c6;}.cls-2{fill:#fff;}.cls-3{fill:none;stroke:#f0f;stroke-miterlimit:10;stroke-width:0.25px;}.cls-4{fill:#f0f;}.cls-5{fill:#103f91;}.cls-6{fill:#185abd;}.cls-7{fill:#2b7cd2;}.cls-8{fill:#41a5ee;}.cls-9{fill:#08224f;opacity:0.4;}.cls-10{fill:#f0f0f0;}.cls-11{fill:#cbcbcb;opacity:0.6;}</style></defs><g id="レイヤー_2" data-name="レイヤー 2"><g id="レイヤー_1-2" data-name="レイヤー 1"><rect class="cls-1" y="96.84" width="254.94" height="252.96" rx="21.85"/><polygon class="cls-2" points="39.53 154.15 65.22 154.15 87.94 266.8 112.65 154.15 142.29 154.15 167.98 266.8 189.72 154.15 215.41 154.15 183.79 292.49 152.17 292.49 126.48 181.82 102.77 292.49 71.15 292.49 39.53 154.15"/><path class="cls-3" d="M126.89,5.22a22.49,22.49,0,0,1,5.64-3.42A22.49,22.49,0,0,0,126.89,5.22Z"/><path class="cls-4" d="M141.42,0a22.78,22.78,0,0,0-6.79,1,22.78,22.78,0,0,1,6.79-1Z"/><path class="cls-5" d="M233.09,349.8H118.58v74a22.79,22.79,0,0,0,8.31,17.63,22.49,22.49,0,0,0,5.64,3.42,21,21,0,0,0,2.1.77,22.38,22.38,0,0,0,3.67.79h342a22.5,22.5,0,0,0,3.68-.79c.71-.22,1.41-.48,2.1-.77a22.86,22.86,0,0,0,13.95-21V334H254.08A21.85,21.85,0,0,1,233.09,349.8Z"/><path class="cls-6" d="M254.94,223.32V328a21.87,21.87,0,0,1-.86,6H500V223.32Z"/><path class="cls-7" d="M254.94,118.69V223.32H500V112.65H254.08A21.87,21.87,0,0,1,254.94,118.69Z"/><path class="cls-8" d="M254.08,112.65H500V22.85a22.86,22.86,0,0,0-13.95-21c-.69-.29-1.39-.55-2.1-.77a22.8,22.8,0,0,0-6.8-1H141.42a22.78,22.78,0,0,0-6.79,1,21,21,0,0,0-2.1.77,22.49,22.49,0,0,0-5.64,3.42,22.79,22.79,0,0,0-8.31,17.63v74H233.09A21.85,21.85,0,0,1,254.08,112.65Z"/><path class="cls-9" d="M254.94,123.48V328a21.85,21.85,0,0,1-21.85,21.85H118.58v13.84H235.06a21.86,21.86,0,0,0,21.86-21.86V132.52A21.69,21.69,0,0,0,254.94,123.48Z"/><path class="cls-10" d="M491.69,456.42a23,23,0,0,1-5.64,3.43c-.69.28-1.39.54-2.1.76a22.5,22.5,0,0,1-3.68.79h-342a22.38,22.38,0,0,1-3.67-.79c-.72-.22-1.42-.48-2.1-.76a22.91,22.91,0,0,1-14-21.06v4a22.8,22.8,0,0,0,8.31,17.63,23.09,23.09,0,0,0,5.64,3.42c.68.29,1.38.54,2.1.77a24.67,24.67,0,0,0,3.67.79h342a24.8,24.8,0,0,0,3.68-.79c.71-.23,1.41-.48,2.1-.77a23.28,23.28,0,0,0,5.64-3.42A22.83,22.83,0,0,0,500,442.75v-4A22.82,22.82,0,0,1,491.69,456.42Z"/><path class="cls-11" d="M491.69,441.6a22.67,22.67,0,0,1-5.64,3.42c-.69.29-1.39.55-2.1.77a22.5,22.5,0,0,1-3.68.79h-342a22.38,22.38,0,0,1-3.67-.79,21,21,0,0,1-2.1-.77,22.49,22.49,0,0,1-5.64-3.42A22.79,22.79,0,0,1,118.58,424v14.82a22.91,22.91,0,0,0,14,21.06c.68.28,1.38.54,2.1.76a22.38,22.38,0,0,0,3.67.79h342a22.5,22.5,0,0,0,3.68-.79c.71-.22,1.41-.48,2.1-.76A22.91,22.91,0,0,0,500,438.79V424A22.82,22.82,0,0,1,491.69,441.6Z"/></g></g></svg>