<svg xmlns="http://www.w3.org/2000/svg" viewBox="0 0 500 485.22"><defs><style>.cls-1{fill:#470137;}.cls-2{fill:#ff61f6;}</style></defs><g id="レイヤー_2" data-name="レイヤー 2"><g id="レイヤー_1-2" data-name="レイヤー 1"><path class="cls-1" d="M410.15,0H88.62C41.87,0,0,37,0,84.93V400.29c0,48,41.87,84.93,88.62,84.93H410.15c46.75,0,89.85-36.94,89.85-84.93V84.93C500,37,456.9,0,410.15,0Z"/><polygon class="cls-2" points="126.85 124.38 169.95 205.66 171.18 204.43 213.22 124.38 262.31 124.38 262.31 126.85 199.51 229.06 199.51 230.3 266.01 339.9 266.01 341.13 210.59 341.13 167.49 261.08 166.26 261.08 123.15 341.13 72.66 341.13 72.66 339.9 136.7 233.99 136.7 232.76 73.89 126.85 73.89 124.38 126.85 124.38"/><path class="cls-2" d="M423.6,305.42h0V105.91h-46.8v67.74h-8.69c-70.13,0-98.46,48-98.46,86.2,0,57.88,35.72,86.21,89.84,86.21l18.54-1.23c36.94-4.93,46.8-13.55,46.8-13.55C424.88,325,423.89,309.83,423.6,305.42Z"/><path class="cls-1" d="M366.73,213.05c-31.75,0-49,18.48-49,46.8,0,35.72,20.94,46.8,49,46.8l10.12-1.23V213.05Z"/></g></g></svg>