<svg xmlns="http://www.w3.org/2000/svg" viewBox="0 0 500 483.18"><defs><style>.cls-1{fill:#2d001f;}.cls-1,.cls-2,.cls-3{fill-rule:evenodd;}.cls-2{fill:#ff25bf;}.cls-3{fill:#ffd9f2;}</style></defs><g id="レイヤー_2" data-name="レイヤー 2"><g id="レイヤー_1-2" data-name="レイヤー 1"><path class="cls-1" d="M97.15,19.82h305.7C445.44,19.82,480,54,480,96.26V386.92c0,42.22-34.53,76.44-77.12,76.44H97.15C54.56,463.36,20,429.14,20,386.92V96.26C20,54,54.56,19.82,97.15,19.82Z"/><path class="cls-2" d="M0,92V391.14c0,50.83,41.58,92,92.88,92H407.12c51.3,0,92.88-41.21,92.88-92V92c0-50.83-41.58-92-92.88-92H92.88C41.58,0,0,41.2,0,92ZM97.67,20.62H402.33c42.45,0,76.86,34.1,76.86,76.17v289.6c0,42.07-34.41,76.17-76.86,76.17H97.67c-42.45,0-76.86-34.1-76.86-76.17V96.79C20.81,54.72,55.22,20.62,97.67,20.62Z"/><path class="cls-3" d="M99.74,110.32h40.42a.89.89,0,0,1,.8.51l38.73,82.62a.89.89,0,0,0,1.6,0l39.59-82.64a.88.88,0,0,1,.8-.5h36.87a.89.89,0,0,1,.79,1.29L203.66,219.47a.86.86,0,0,0,0,.81l60.07,114.93a.89.89,0,0,1-.78,1.3H221.68a.88.88,0,0,1-.8-.5l-41.81-85.34a.88.88,0,0,0-1.59,0L136.54,336a.88.88,0,0,1-.79.5H97.13a.88.88,0,0,1-.78-1.3L155.09,224.7a.92.92,0,0,0,0-.81L99,111.6A.88.88,0,0,1,99.74,110.32Z"/><path class="cls-3" d="M363.38,110.32h35.34a.88.88,0,0,1,.88.89V318.33a42.6,42.6,0,0,1,.89,8.46c0,3.53-71.57,30.92-110-6.34-13.78-13.37-23.43-34.34-23.43-67,0-95.42,95.42-86.59,95.42-86.59V111.2A.88.88,0,0,1,363.38,110.32Z"/><path class="cls-1" d="M362.49,199.56v106s-57.43,15.91-57.43-51.24C305.06,186.3,362.49,199.56,362.49,199.56Z"/></g></g></svg>