<svg xmlns="http://www.w3.org/2000/svg" viewBox="0 0 500 349.7"><defs><style>.cls-1{fill:red;}.cls-2{fill:#fff;}</style></defs><g id="レイヤー_2" data-name="レイヤー 2"><g id="レイヤー_1-2" data-name="レイヤー 1"><path class="cls-1" d="M493,72.25c-9.25-66.25-55.5-65-94.25-68C342.57-.1,250,0,250,0S157.43-.1,101.25,4.25C62.5,7.25,16.25,6,7,72.25,4.56,89.69,2.5,101,0,174.85,2.5,248.7,4.56,260,7,277.45c9.25,66.25,55.5,65,94.25,68C157.43,349.8,250,349.7,250,349.7s92.57.1,148.75-4.25c38.75-3,85-1.75,94.25-68,2.44-17.44,4.5-28.75,7-102.6C497.5,101,495.44,89.69,493,72.25Z"/><polygon class="cls-2" points="200.31 99.75 200.31 249.75 329.88 174.71 200.31 99.75"/></g></g></svg>